<svg xmlns="http://www.w3.org/2000/svg" xmlns:xlink="http://www.w3.org/1999/xlink" width="500" zoomAndPan="magnify" viewBox="0 0 375 374.999991" height="500" preserveAspectRatio="xMidYMid meet" version="1.0"><defs><g/><clipPath id="e2d54a650f"><path d="M 238.726562 170 L 284 170 L 284 220.984375 L 238.726562 220.984375 Z M 238.726562 170 " clip-rule="nonzero"/></clipPath><clipPath id="445678ea3a"><path d="M 239 209 L 253 209 L 253 220.984375 L 239 220.984375 Z M 239 209 " clip-rule="nonzero"/></clipPath><clipPath id="7065aeaf06"><path d="M 238.726562 195 L 251 195 L 251 208 L 238.726562 208 Z M 238.726562 195 " clip-rule="nonzero"/></clipPath><clipPath id="cb8678fb98"><path d="M 238.726562 119 L 248 119 L 248 154 L 238.726562 154 Z M 238.726562 119 " clip-rule="nonzero"/></clipPath><clipPath id="4c1fc90edd"><path d="M 238.726562 151 L 247 151 L 247 159 L 238.726562 159 Z M 238.726562 151 " clip-rule="nonzero"/></clipPath><clipPath id="db260a2781"><path d="M 243 142 L 301.726562 142 L 301.726562 179 L 243 179 Z M 243 142 " clip-rule="nonzero"/></clipPath><clipPath id="31b9e9563b"><path d="M 242 141 L 301.726562 141 L 301.726562 180 L 242 180 Z M 242 141 " clip-rule="nonzero"/></clipPath><clipPath id="f2ed242ca9"><path d="M 238.726562 195 L 251 195 L 251 208 L 238.726562 208 Z M 238.726562 195 " clip-rule="nonzero"/></clipPath><clipPath id="5f8587672d"><path d="M 238.726562 194 L 252 194 L 252 209 L 238.726562 209 Z M 238.726562 194 " clip-rule="nonzero"/></clipPath><clipPath id="75b92fb66b"><path d="M 238.726562 195 L 251 195 L 251 208 L 238.726562 208 Z M 238.726562 195 " clip-rule="nonzero"/></clipPath><clipPath id="48d3fbac8e"><path d="M 238.726562 194 L 252 194 L 252 209 L 238.726562 209 Z M 238.726562 194 " clip-rule="nonzero"/></clipPath><clipPath id="786fbb6716"><path d="M 238.726562 209 L 252 209 L 252 220.984375 L 238.726562 220.984375 Z M 238.726562 209 " clip-rule="nonzero"/></clipPath><clipPath id="75667d19e7"><path d="M 238.726562 169 L 284 169 L 284 220.984375 L 238.726562 220.984375 Z M 238.726562 169 " clip-rule="nonzero"/></clipPath><clipPath id="4733272d2a"><path d="M 238.726562 158 L 242 158 L 242 164 L 238.726562 164 Z M 238.726562 158 " clip-rule="nonzero"/></clipPath><clipPath id="136203b927"><path d="M 238.726562 138 L 242 138 L 242 144 L 238.726562 144 Z M 238.726562 138 " clip-rule="nonzero"/></clipPath><clipPath id="ed98c0cc25"><path d="M 238.726562 150 L 247 150 L 247 158 L 238.726562 158 Z M 238.726562 150 " clip-rule="nonzero"/></clipPath><clipPath id="9a58c25554"><path d="M 238.726562 118.984375 L 248 118.984375 L 248 153 L 238.726562 153 Z M 238.726562 118.984375 " clip-rule="nonzero"/></clipPath><clipPath id="ab617dc7c8"><rect x="0" width="107" y="0" height="171"/></clipPath><clipPath id="f2a51823d0"><path d="M 51.75 132.0625 L 92 132.0625 L 92 186 L 51.75 186 Z M 51.75 132.0625 " clip-rule="nonzero"/></clipPath><clipPath id="bc90a9f280"><path d="M 73 132.0625 L 140 132.0625 L 140 186 L 73 186 Z M 73 132.0625 " clip-rule="nonzero"/></clipPath><clipPath id="1803f0fae2"><path d="M 139.953125 132.0625 L 187.203125 132.0625 L 187.203125 186.8125 L 139.953125 186.8125 Z M 139.953125 132.0625 " clip-rule="nonzero"/></clipPath><clipPath id="7648669417"><path d="M 174 134.753906 L 236.867188 134.753906 L 236.867188 188.753906 L 174 188.753906 Z M 174 134.753906 " clip-rule="nonzero"/></clipPath><clipPath id="3f9262f4a9"><rect x="0" width="155" y="0" height="28"/></clipPath><clipPath id="09ba9fc910"><path d="M 135.074219 83 L 288 83 L 288 137 L 135.074219 137 Z M 135.074219 83 " clip-rule="nonzero"/></clipPath><clipPath id="91f5c720bf"><path d="M 0.199219 2 L 23 2 L 23 38 L 0.199219 38 Z M 0.199219 2 " clip-rule="nonzero"/></clipPath><clipPath id="8f9b62a607"><path d="M 22 0.078125 L 31 0.078125 L 31 39 L 22 39 Z M 22 0.078125 " clip-rule="nonzero"/></clipPath><clipPath id="f21602d370"><path d="M 185 0.078125 L 215 0.078125 L 215 39 L 185 39 Z M 185 0.078125 " clip-rule="nonzero"/></clipPath><clipPath id="5ff28773dd"><rect x="0" width="216" y="0" height="49"/></clipPath><clipPath id="5449724cd8"><path d="M 349 53.730469 L 375 53.730469 L 375 79 L 349 79 Z M 349 53.730469 " clip-rule="nonzero"/></clipPath><clipPath id="11a3953a16"><path d="M 338 65 L 364 65 L 364 91 L 338 91 Z M 338 65 " clip-rule="nonzero"/></clipPath><clipPath id="bb81c72a82"><path d="M 361.585938 65.25 L 338.46875 65.25 C 338.472656 71.007812 343.136719 75.675781 348.898438 75.679688 L 353.15625 75.679688 L 353.15625 79.804688 C 353.164062 85.5625 357.832031 90.226562 363.589844 90.226562 L 363.589844 67.257812 C 363.589844 66.148438 362.691406 65.25 361.585938 65.25 Z M 361.585938 65.25 " clip-rule="nonzero"/></clipPath><linearGradient x1="0.990597" gradientTransform="matrix(25.122441, 0, 0, 24.975417, 338.467736, 65.250428)" y1="-0.00906502" x2="0.00926436" gradientUnits="userSpaceOnUse" y2="1.00893" id="b61afb2040"><stop stop-opacity="1" stop-color="rgb(0%, 32.159424%, 79.998779%)" offset="0"/><stop stop-opacity="1" stop-color="rgb(0%, 32.159424%, 79.998779%)" offset="0.0625"/><stop stop-opacity="1" stop-color="rgb(0%, 32.159424%, 79.998779%)" offset="0.078125"/><stop stop-opacity="1" stop-color="rgb(0.0823975%, 32.269287%, 80.110168%)" offset="0.0859375"/><stop stop-opacity="1" stop-color="rgb(0.343323%, 32.61261%, 80.461121%)" offset="0.0898438"/><stop stop-opacity="1" stop-color="rgb(0.521851%, 32.846069%, 80.700684%)" offset="0.09375"/><stop stop-opacity="1" stop-color="rgb(0.698853%, 33.079529%, 80.938721%)" offset="0.0976562"/><stop stop-opacity="1" stop-color="rgb(0.87738%, 33.314514%, 81.178284%)" offset="0.101562"/><stop stop-opacity="1" stop-color="rgb(1.054382%, 33.547974%, 81.416321%)" offset="0.105469"/><stop stop-opacity="1" stop-color="rgb(1.23291%, 33.782959%, 81.655884%)" offset="0.109375"/><stop stop-opacity="1" stop-color="rgb(1.411438%, 34.016418%, 81.893921%)" offset="0.113281"/><stop stop-opacity="1" stop-color="rgb(1.589966%, 34.251404%, 82.133484%)" offset="0.117188"/><stop stop-opacity="1" stop-color="rgb(1.766968%, 34.484863%, 82.371521%)" offset="0.121094"/><stop stop-opacity="1" stop-color="rgb(1.945496%, 34.719849%, 82.611084%)" offset="0.125"/><stop stop-opacity="1" stop-color="rgb(2.122498%, 34.953308%, 82.849121%)" offset="0.128906"/><stop stop-opacity="1" stop-color="rgb(2.301025%, 35.186768%, 83.088684%)" offset="0.132812"/><stop stop-opacity="1" stop-color="rgb(2.478027%, 35.420227%, 83.326721%)" offset="0.136719"/><stop stop-opacity="1" stop-color="rgb(2.656555%, 35.655212%, 83.566284%)" offset="0.140625"/><stop stop-opacity="1" stop-color="rgb(2.835083%, 35.888672%, 83.804321%)" offset="0.144531"/><stop stop-opacity="1" stop-color="rgb(3.013611%, 36.123657%, 84.043884%)" offset="0.148438"/><stop stop-opacity="1" stop-color="rgb(3.190613%, 36.357117%, 84.283447%)" offset="0.152344"/><stop stop-opacity="1" stop-color="rgb(3.369141%, 36.592102%, 84.52301%)" offset="0.15625"/><stop stop-opacity="1" stop-color="rgb(3.546143%, 36.825562%, 84.761047%)" offset="0.160156"/><stop stop-opacity="1" stop-color="rgb(3.72467%, 37.060547%, 85.00061%)" offset="0.164062"/><stop stop-opacity="1" stop-color="rgb(3.901672%, 37.294006%, 85.238647%)" offset="0.167969"/><stop stop-opacity="1" stop-color="rgb(4.0802%, 37.527466%, 85.47821%)" offset="0.171875"/><stop stop-opacity="1" stop-color="rgb(4.258728%, 37.760925%, 85.716248%)" offset="0.175781"/><stop stop-opacity="1" stop-color="rgb(4.437256%, 37.995911%, 85.955811%)" offset="0.179688"/><stop stop-opacity="1" stop-color="rgb(4.614258%, 38.22937%, 86.193848%)" offset="0.183594"/><stop stop-opacity="1" stop-color="rgb(4.792786%, 38.464355%, 86.433411%)" offset="0.1875"/><stop stop-opacity="1" stop-color="rgb(4.969788%, 38.697815%, 86.671448%)" offset="0.191406"/><stop stop-opacity="1" stop-color="rgb(5.148315%, 38.9328%, 86.911011%)" offset="0.195312"/><stop stop-opacity="1" stop-color="rgb(5.325317%, 39.16626%, 87.149048%)" offset="0.199219"/><stop stop-opacity="1" stop-color="rgb(5.503845%, 39.401245%, 87.388611%)" offset="0.203125"/><stop stop-opacity="1" stop-color="rgb(5.682373%, 39.634705%, 87.626648%)" offset="0.207031"/><stop stop-opacity="1" stop-color="rgb(5.860901%, 39.86969%, 87.866211%)" offset="0.210938"/><stop stop-opacity="1" stop-color="rgb(6.037903%, 40.103149%, 88.104248%)" offset="0.214844"/><stop stop-opacity="1" stop-color="rgb(6.216431%, 40.336609%, 88.343811%)" offset="0.21875"/><stop stop-opacity="1" stop-color="rgb(6.393433%, 40.570068%, 88.581848%)" offset="0.222656"/><stop stop-opacity="1" stop-color="rgb(6.57196%, 40.805054%, 88.821411%)" offset="0.226562"/><stop stop-opacity="1" stop-color="rgb(6.748962%, 41.038513%, 89.059448%)" offset="0.230469"/><stop stop-opacity="1" stop-color="rgb(6.92749%, 41.273499%, 89.299011%)" offset="0.234375"/><stop stop-opacity="1" stop-color="rgb(7.106018%, 41.506958%, 89.537048%)" offset="0.238281"/><stop stop-opacity="1" stop-color="rgb(7.284546%, 41.741943%, 89.776611%)" offset="0.242187"/><stop stop-opacity="1" stop-color="rgb(7.461548%, 41.975403%, 90.014648%)" offset="0.246094"/><stop stop-opacity="1" stop-color="rgb(7.640076%, 42.210388%, 90.254211%)" offset="0.25"/><stop stop-opacity="1" stop-color="rgb(7.817078%, 42.443848%, 90.493774%)" offset="0.253906"/><stop stop-opacity="1" stop-color="rgb(7.995605%, 42.677307%, 90.733337%)" offset="0.257813"/><stop stop-opacity="1" stop-color="rgb(8.172607%, 42.910767%, 90.971375%)" offset="0.261719"/><stop stop-opacity="1" stop-color="rgb(8.351135%, 43.145752%, 91.210938%)" offset="0.265625"/><stop stop-opacity="1" stop-color="rgb(8.528137%, 43.379211%, 91.448975%)" offset="0.269531"/><stop stop-opacity="1" stop-color="rgb(8.706665%, 43.614197%, 91.688538%)" offset="0.273438"/><stop stop-opacity="1" stop-color="rgb(8.885193%, 43.847656%, 91.926575%)" offset="0.277344"/><stop stop-opacity="1" stop-color="rgb(9.063721%, 44.082642%, 92.166138%)" offset="0.28125"/><stop stop-opacity="1" stop-color="rgb(9.240723%, 44.316101%, 92.404175%)" offset="0.285156"/><stop stop-opacity="1" stop-color="rgb(9.41925%, 44.551086%, 92.643738%)" offset="0.289062"/><stop stop-opacity="1" stop-color="rgb(9.596252%, 44.784546%, 92.881775%)" offset="0.292969"/><stop stop-opacity="1" stop-color="rgb(9.77478%, 45.018005%, 93.121338%)" offset="0.296875"/><stop stop-opacity="1" stop-color="rgb(9.951782%, 45.251465%, 93.359375%)" offset="0.300781"/><stop stop-opacity="1" stop-color="rgb(10.13031%, 45.48645%, 93.598938%)" offset="0.304688"/><stop stop-opacity="1" stop-color="rgb(10.308838%, 45.71991%, 93.836975%)" offset="0.308594"/><stop stop-opacity="1" stop-color="rgb(10.487366%, 45.954895%, 94.076538%)" offset="0.3125"/><stop stop-opacity="1" stop-color="rgb(10.664368%, 46.188354%, 94.314575%)" offset="0.316406"/><stop stop-opacity="1" stop-color="rgb(10.842896%, 46.42334%, 94.554138%)" offset="0.320312"/><stop stop-opacity="1" stop-color="rgb(11.019897%, 46.656799%, 94.792175%)" offset="0.324219"/><stop stop-opacity="1" stop-color="rgb(11.198425%, 46.891785%, 95.031738%)" offset="0.328125"/><stop stop-opacity="1" stop-color="rgb(11.375427%, 47.125244%, 95.269775%)" offset="0.332031"/><stop stop-opacity="1" stop-color="rgb(11.553955%, 47.360229%, 95.509338%)" offset="0.335938"/><stop stop-opacity="1" stop-color="rgb(11.732483%, 47.593689%, 95.747375%)" offset="0.339844"/><stop stop-opacity="1" stop-color="rgb(11.911011%, 47.827148%, 95.986938%)" offset="0.34375"/><stop stop-opacity="1" stop-color="rgb(12.088013%, 48.060608%, 96.224976%)" offset="0.347656"/><stop stop-opacity="1" stop-color="rgb(12.266541%, 48.295593%, 96.464539%)" offset="0.351562"/><stop stop-opacity="1" stop-color="rgb(12.443542%, 48.529053%, 96.702576%)" offset="0.355469"/><stop stop-opacity="1" stop-color="rgb(12.62207%, 48.764038%, 96.942139%)" offset="0.359375"/><stop stop-opacity="1" stop-color="rgb(12.799072%, 48.997498%, 97.181702%)" offset="0.363281"/><stop stop-opacity="1" stop-color="rgb(12.9776%, 49.232483%, 97.421265%)" offset="0.367188"/><stop stop-opacity="1" stop-color="rgb(13.156128%, 49.465942%, 97.659302%)" offset="0.371094"/><stop stop-opacity="1" stop-color="rgb(13.334656%, 49.700928%, 97.898865%)" offset="0.375"/><stop stop-opacity="1" stop-color="rgb(13.511658%, 49.934387%, 98.136902%)" offset="0.378906"/><stop stop-opacity="1" stop-color="rgb(13.690186%, 50.167847%, 98.376465%)" offset="0.382813"/><stop stop-opacity="1" stop-color="rgb(13.867188%, 50.401306%, 98.614502%)" offset="0.386719"/><stop stop-opacity="1" stop-color="rgb(14.045715%, 50.636292%, 98.854065%)" offset="0.390625"/><stop stop-opacity="1" stop-color="rgb(14.222717%, 50.869751%, 99.092102%)" offset="0.394531"/><stop stop-opacity="1" stop-color="rgb(14.401245%, 51.104736%, 99.331665%)" offset="0.398438"/><stop stop-opacity="1" stop-color="rgb(14.579773%, 51.338196%, 99.569702%)" offset="0.402344"/><stop stop-opacity="1" stop-color="rgb(14.758301%, 51.573181%, 99.809265%)" offset="0.40625"/><stop stop-opacity="1" stop-color="rgb(14.828491%, 51.66626%, 99.90387%)" offset="0.4375"/><stop stop-opacity="1" stop-color="rgb(14.898682%, 51.759338%, 100%)" offset="0.490831"/><stop stop-opacity="1" stop-color="rgb(14.898682%, 51.759338%, 100%)" offset="0.5"/><stop stop-opacity="1" stop-color="rgb(14.898682%, 51.759338%, 100%)" offset="0.509169"/><stop stop-opacity="1" stop-color="rgb(14.898682%, 51.759338%, 100%)" offset="1"/></linearGradient><clipPath id="5e2c3cc48a"><path d="M 327.023438 76 L 353 76 L 353 101.730469 L 327.023438 101.730469 Z M 327.023438 76 " clip-rule="nonzero"/></clipPath><clipPath id="a5eafb4d31"><path d="M 350.140625 76.761719 L 327.023438 76.761719 C 327.023438 82.523438 331.695312 87.195312 337.457031 87.195312 L 341.730469 87.195312 L 341.730469 91.308594 C 341.734375 97.0625 346.390625 101.726562 352.144531 101.734375 L 352.144531 78.769531 C 352.144531 77.660156 351.246094 76.761719 350.140625 76.761719 Z M 350.140625 76.761719 " clip-rule="nonzero"/></clipPath><linearGradient x1="1.00555" gradientTransform="matrix(25.122441, 0, 0, 24.97391, 327.023317, 76.762148)" y1="0.00567484" x2="-0.00537345" gradientUnits="userSpaceOnUse" y2="0.994355" id="7c417d8705"><stop stop-opacity="1" stop-color="rgb(0%, 32.159424%, 79.998779%)" offset="0"/><stop stop-opacity="1" stop-color="rgb(0%, 32.159424%, 79.998779%)" offset="0.0625"/><stop stop-opacity="1" stop-color="rgb(0%, 32.159424%, 79.998779%)" offset="0.078125"/><stop stop-opacity="1" stop-color="rgb(0.131226%, 32.331848%, 80.174255%)" offset="0.0859375"/><stop stop-opacity="1" stop-color="rgb(0.419617%, 32.713318%, 80.563354%)" offset="0.0898438"/><stop stop-opacity="1" stop-color="rgb(0.578308%, 32.922363%, 80.776978%)" offset="0.09375"/><stop stop-opacity="1" stop-color="rgb(0.737%, 33.129883%, 80.989075%)" offset="0.0976562"/><stop stop-opacity="1" stop-color="rgb(0.895691%, 33.338928%, 81.202698%)" offset="0.101562"/><stop stop-opacity="1" stop-color="rgb(1.054382%, 33.546448%, 81.414795%)" offset="0.105469"/><stop stop-opacity="1" stop-color="rgb(1.213074%, 33.755493%, 81.628418%)" offset="0.109375"/><stop stop-opacity="1" stop-color="rgb(1.371765%, 33.964539%, 81.840515%)" offset="0.113281"/><stop stop-opacity="1" stop-color="rgb(1.530457%, 34.173584%, 82.054138%)" offset="0.117187"/><stop stop-opacity="1" stop-color="rgb(1.687622%, 34.381104%, 82.266235%)" offset="0.121094"/><stop stop-opacity="1" stop-color="rgb(1.846313%, 34.590149%, 82.479858%)" offset="0.125"/><stop stop-opacity="1" stop-color="rgb(2.005005%, 34.797668%, 82.691956%)" offset="0.128906"/><stop stop-opacity="1" stop-color="rgb(2.163696%, 35.006714%, 82.905579%)" offset="0.132812"/><stop stop-opacity="1" stop-color="rgb(2.322388%, 35.214233%, 83.117676%)" offset="0.136719"/><stop stop-opacity="1" stop-color="rgb(2.481079%, 35.423279%, 83.331299%)" offset="0.140625"/><stop stop-opacity="1" stop-color="rgb(2.639771%, 35.632324%, 83.543396%)" offset="0.144531"/><stop stop-opacity="1" stop-color="rgb(2.798462%, 35.84137%, 83.755493%)" offset="0.148438"/><stop stop-opacity="1" stop-color="rgb(2.957153%, 36.048889%, 83.96759%)" offset="0.152344"/><stop stop-opacity="1" stop-color="rgb(3.115845%, 36.257935%, 84.181213%)" offset="0.15625"/><stop stop-opacity="1" stop-color="rgb(3.27301%, 36.465454%, 84.393311%)" offset="0.160156"/><stop stop-opacity="1" stop-color="rgb(3.431702%, 36.6745%, 84.606934%)" offset="0.164062"/><stop stop-opacity="1" stop-color="rgb(3.590393%, 36.883545%, 84.819031%)" offset="0.167969"/><stop stop-opacity="1" stop-color="rgb(3.749084%, 37.09259%, 85.032654%)" offset="0.171875"/><stop stop-opacity="1" stop-color="rgb(3.907776%, 37.30011%, 85.244751%)" offset="0.175781"/><stop stop-opacity="1" stop-color="rgb(4.066467%, 37.509155%, 85.458374%)" offset="0.179688"/><stop stop-opacity="1" stop-color="rgb(4.225159%, 37.716675%, 85.670471%)" offset="0.183594"/><stop stop-opacity="1" stop-color="rgb(4.38385%, 37.92572%, 85.884094%)" offset="0.1875"/><stop stop-opacity="1" stop-color="rgb(4.541016%, 38.134766%, 86.096191%)" offset="0.191406"/><stop stop-opacity="1" stop-color="rgb(4.699707%, 38.343811%, 86.309814%)" offset="0.195312"/><stop stop-opacity="1" stop-color="rgb(4.858398%, 38.551331%, 86.521912%)" offset="0.199219"/><stop stop-opacity="1" stop-color="rgb(5.01709%, 38.760376%, 86.735535%)" offset="0.203125"/><stop stop-opacity="1" stop-color="rgb(5.175781%, 38.967896%, 86.947632%)" offset="0.207031"/><stop stop-opacity="1" stop-color="rgb(5.334473%, 39.176941%, 87.159729%)" offset="0.210937"/><stop stop-opacity="1" stop-color="rgb(5.493164%, 39.38446%, 87.371826%)" offset="0.214844"/><stop stop-opacity="1" stop-color="rgb(5.651855%, 39.593506%, 87.585449%)" offset="0.21875"/><stop stop-opacity="1" stop-color="rgb(5.809021%, 39.802551%, 87.797546%)" offset="0.222656"/><stop stop-opacity="1" stop-color="rgb(5.967712%, 40.011597%, 88.011169%)" offset="0.226562"/><stop stop-opacity="1" stop-color="rgb(6.126404%, 40.219116%, 88.223267%)" offset="0.230469"/><stop stop-opacity="1" stop-color="rgb(6.285095%, 40.428162%, 88.43689%)" offset="0.234375"/><stop stop-opacity="1" stop-color="rgb(6.443787%, 40.635681%, 88.648987%)" offset="0.238281"/><stop stop-opacity="1" stop-color="rgb(6.602478%, 40.844727%, 88.86261%)" offset="0.242188"/><stop stop-opacity="1" stop-color="rgb(6.761169%, 41.053772%, 89.074707%)" offset="0.246094"/><stop stop-opacity="1" stop-color="rgb(6.919861%, 41.262817%, 89.28833%)" offset="0.25"/><stop stop-opacity="1" stop-color="rgb(7.077026%, 41.470337%, 89.500427%)" offset="0.253906"/><stop stop-opacity="1" stop-color="rgb(7.235718%, 41.679382%, 89.71405%)" offset="0.257813"/><stop stop-opacity="1" stop-color="rgb(7.394409%, 41.886902%, 89.926147%)" offset="0.261719"/><stop stop-opacity="1" stop-color="rgb(7.553101%, 42.095947%, 90.139771%)" offset="0.265625"/><stop stop-opacity="1" stop-color="rgb(7.711792%, 42.304993%, 90.351868%)" offset="0.269531"/><stop stop-opacity="1" stop-color="rgb(7.870483%, 42.514038%, 90.563965%)" offset="0.273438"/><stop stop-opacity="1" stop-color="rgb(8.029175%, 42.721558%, 90.776062%)" offset="0.277344"/><stop stop-opacity="1" stop-color="rgb(8.187866%, 42.930603%, 90.989685%)" offset="0.28125"/><stop stop-opacity="1" stop-color="rgb(8.345032%, 43.138123%, 91.201782%)" offset="0.285156"/><stop stop-opacity="1" stop-color="rgb(8.503723%, 43.347168%, 91.415405%)" offset="0.289063"/><stop stop-opacity="1" stop-color="rgb(8.662415%, 43.554688%, 91.627502%)" offset="0.292969"/><stop stop-opacity="1" stop-color="rgb(8.821106%, 43.763733%, 91.841125%)" offset="0.296875"/><stop stop-opacity="1" stop-color="rgb(8.979797%, 43.972778%, 92.053223%)" offset="0.300781"/><stop stop-opacity="1" stop-color="rgb(9.138489%, 44.181824%, 92.266846%)" offset="0.304688"/><stop stop-opacity="1" stop-color="rgb(9.29718%, 44.389343%, 92.478943%)" offset="0.308594"/><stop stop-opacity="1" stop-color="rgb(9.455872%, 44.598389%, 92.692566%)" offset="0.3125"/><stop stop-opacity="1" stop-color="rgb(9.614563%, 44.805908%, 92.904663%)" offset="0.316406"/><stop stop-opacity="1" stop-color="rgb(9.773254%, 45.014954%, 93.118286%)" offset="0.320313"/><stop stop-opacity="1" stop-color="rgb(9.93042%, 45.223999%, 93.330383%)" offset="0.324219"/><stop stop-opacity="1" stop-color="rgb(10.089111%, 45.433044%, 93.544006%)" offset="0.328125"/><stop stop-opacity="1" stop-color="rgb(10.247803%, 45.640564%, 93.756104%)" offset="0.332031"/><stop stop-opacity="1" stop-color="rgb(10.406494%, 45.849609%, 93.968201%)" offset="0.335938"/><stop stop-opacity="1" stop-color="rgb(10.565186%, 46.057129%, 94.180298%)" offset="0.339844"/><stop stop-opacity="1" stop-color="rgb(10.723877%, 46.266174%, 94.393921%)" offset="0.34375"/><stop stop-opacity="1" stop-color="rgb(10.882568%, 46.47522%, 94.606018%)" offset="0.347656"/><stop stop-opacity="1" stop-color="rgb(11.04126%, 46.684265%, 94.819641%)" offset="0.351563"/><stop stop-opacity="1" stop-color="rgb(11.198425%, 46.891785%, 95.031738%)" offset="0.355469"/><stop stop-opacity="1" stop-color="rgb(11.357117%, 47.10083%, 95.245361%)" offset="0.359375"/><stop stop-opacity="1" stop-color="rgb(11.515808%, 47.30835%, 95.457458%)" offset="0.363281"/><stop stop-opacity="1" stop-color="rgb(11.6745%, 47.517395%, 95.671082%)" offset="0.367188"/><stop stop-opacity="1" stop-color="rgb(11.833191%, 47.724915%, 95.883179%)" offset="0.371094"/><stop stop-opacity="1" stop-color="rgb(11.991882%, 47.93396%, 96.096802%)" offset="0.375"/><stop stop-opacity="1" stop-color="rgb(12.150574%, 48.143005%, 96.308899%)" offset="0.378906"/><stop stop-opacity="1" stop-color="rgb(12.309265%, 48.352051%, 96.522522%)" offset="0.382812"/><stop stop-opacity="1" stop-color="rgb(12.466431%, 48.55957%, 96.734619%)" offset="0.386719"/><stop stop-opacity="1" stop-color="rgb(12.625122%, 48.768616%, 96.948242%)" offset="0.390625"/><stop stop-opacity="1" stop-color="rgb(12.783813%, 48.976135%, 97.160339%)" offset="0.394531"/><stop stop-opacity="1" stop-color="rgb(12.942505%, 49.185181%, 97.372437%)" offset="0.398438"/><stop stop-opacity="1" stop-color="rgb(13.101196%, 49.394226%, 97.584534%)" offset="0.402344"/><stop stop-opacity="1" stop-color="rgb(13.259888%, 49.603271%, 97.798157%)" offset="0.40625"/><stop stop-opacity="1" stop-color="rgb(13.418579%, 49.810791%, 98.010254%)" offset="0.410156"/><stop stop-opacity="1" stop-color="rgb(13.577271%, 50.019836%, 98.223877%)" offset="0.414062"/><stop stop-opacity="1" stop-color="rgb(13.734436%, 50.227356%, 98.435974%)" offset="0.417969"/><stop stop-opacity="1" stop-color="rgb(13.893127%, 50.436401%, 98.649597%)" offset="0.421875"/><stop stop-opacity="1" stop-color="rgb(14.051819%, 50.645447%, 98.861694%)" offset="0.425781"/><stop stop-opacity="1" stop-color="rgb(14.21051%, 50.854492%, 99.075317%)" offset="0.429688"/><stop stop-opacity="1" stop-color="rgb(14.369202%, 51.062012%, 99.287415%)" offset="0.433594"/><stop stop-opacity="1" stop-color="rgb(14.527893%, 51.271057%, 99.501038%)" offset="0.4375"/><stop stop-opacity="1" stop-color="rgb(14.686584%, 51.478577%, 99.713135%)" offset="0.441406"/><stop stop-opacity="1" stop-color="rgb(14.845276%, 51.687622%, 99.926758%)" offset="0.445312"/><stop stop-opacity="1" stop-color="rgb(14.871216%, 51.722717%, 99.963379%)" offset="0.453125"/><stop stop-opacity="1" stop-color="rgb(14.898682%, 51.759338%, 100%)" offset="0.46875"/><stop stop-opacity="1" stop-color="rgb(14.898682%, 51.759338%, 100%)" offset="0.4944"/><stop stop-opacity="1" stop-color="rgb(14.898682%, 51.759338%, 100%)" offset="0.5"/><stop stop-opacity="1" stop-color="rgb(14.898682%, 51.759338%, 100%)" offset="0.5056"/><stop stop-opacity="1" stop-color="rgb(14.898682%, 51.759338%, 100%)" offset="1"/></linearGradient></defs><g clip-path="url(#e2d54a650f)"><path stroke-linecap="butt" transform="matrix(0.209847, 0, 0, 0.210223, 238.82306, 117.092952)" fill="none" stroke-linejoin="miter" d="M 114.579133 396.031203 C 114.579133 398.874172 114.299912 401.661396 113.760085 404.448621 C 113.201643 407.217263 112.382596 409.91158 111.302942 412.531571 C 110.223288 415.13298 108.883028 417.622901 107.319391 419.982751 C 105.755755 422.324019 103.968741 424.498054 101.958352 426.504855 C 99.966576 428.493075 97.788654 430.29548 95.443199 431.856326 C 93.079129 433.435753 90.603371 434.755039 87.978696 435.832766 C 85.372635 436.929074 82.6735 437.74666 79.899907 438.285523 C 77.126313 438.842968 74.334105 439.121691 71.504667 439.121691 C 68.675229 439.121691 65.864407 438.842968 63.090813 438.285523 C 60.317219 437.74666 57.618085 436.929074 55.012024 435.832766 C 52.405963 434.755039 49.91159 433.435753 47.566135 431.856326 C 45.22068 430.29548 43.042758 428.493075 41.032368 426.504855 C 39.040593 424.498054 37.25358 422.324019 35.671328 419.982751 C 34.107692 417.622901 32.786046 415.13298 31.706393 412.531571 C 30.608124 409.91158 29.807691 407.217263 29.249249 404.448621 C 28.690808 401.661396 28.411587 398.874172 28.411587 396.031203 C 28.411587 393.206816 28.690808 390.40101 29.249249 387.632368 C 29.807691 384.863725 30.608124 382.169408 31.706393 379.549417 C 32.786046 376.948008 34.107692 374.458088 35.671328 372.098238 C 37.25358 369.756969 39.040593 367.582934 41.032368 365.576133 C 43.042758 363.569331 45.22068 361.785508 47.566135 360.224662 C 49.91159 358.645235 52.405963 357.325949 55.012024 356.248222 C 57.618085 355.151914 60.317219 354.334328 63.090813 353.795465 C 65.864407 353.23802 68.675229 352.959298 71.504667 352.959298 C 74.334105 352.959298 77.126313 353.23802 79.899907 353.795465 C 82.6735 354.334328 85.372635 355.151914 87.978696 356.248222 C 90.603371 357.325949 93.079129 358.645235 95.443199 360.224662 C 97.788654 361.785508 99.966576 363.569331 101.958352 365.576133 C 103.968741 367.582934 105.755755 369.756969 107.319391 372.098238 C 108.883028 374.458088 110.223288 376.948008 111.302942 379.549417 C 112.382596 382.169408 113.201643 384.863725 113.760085 387.632368 C 114.299912 390.40101 114.579133 393.206816 114.579133 396.031203 Z M 114.579133 396.031203 " stroke="#808080" stroke-width="7.031" stroke-opacity="0.2" stroke-miterlimit="10"/><path stroke-linecap="butt" transform="matrix(0.209847, 0, 0, 0.210223, 238.82306, 117.092952)" fill="none" stroke-linejoin="miter" d="M 114.579133 396.031203 C 114.579133 398.874172 114.299912 401.661396 113.760085 404.448621 C 113.201643 407.217263 112.382596 409.91158 111.302942 412.531571 C 110.223288 415.13298 108.883028 417.622901 107.319391 419.982751 C 105.755755 422.324019 103.968741 424.498054 101.958352 426.504855 C 99.966576 428.493075 97.788654 430.29548 95.443199 431.856326 C 93.079129 433.435753 90.603371 434.755039 87.978696 435.832766 C 85.372635 436.929074 82.6735 437.74666 79.899907 438.285523 C 77.126313 438.842968 74.334105 439.121691 71.504667 439.121691 C 68.675229 439.121691 65.864407 438.842968 63.090813 438.285523 C 60.317219 437.74666 57.618085 436.929074 55.012024 435.832766 C 52.405963 434.755039 49.91159 433.435753 47.566135 431.856326 C 45.22068 430.29548 43.042758 428.493075 41.032368 426.504855 C 39.040593 424.498054 37.25358 422.324019 35.671328 419.982751 C 34.107692 417.622901 32.786046 415.13298 31.706393 412.531571 C 30.608124 409.91158 29.807691 407.217263 29.249249 404.448621 C 28.690808 401.661396 28.411587 398.874172 28.411587 396.031203 C 28.411587 393.206816 28.690808 390.40101 29.249249 387.632368 C 29.807691 384.863725 30.608124 382.169408 31.706393 379.549417 C 32.786046 376.948008 34.107692 374.458088 35.671328 372.098238 C 37.25358 369.756969 39.040593 367.582934 41.032368 365.576133 C 43.042758 363.569331 45.22068 361.785508 47.566135 360.224662 C 49.91159 358.645235 52.405963 357.325949 55.012024 356.248222 C 57.618085 355.151914 60.317219 354.334328 63.090813 353.795465 C 65.864407 353.23802 68.675229 352.959298 71.504667 352.959298 C 74.334105 352.959298 77.126313 353.23802 79.899907 353.795465 C 82.6735 354.334328 85.372635 355.151914 87.978696 356.248222 C 90.603371 357.325949 93.079129 358.645235 95.443199 360.224662 C 97.788654 361.785508 99.966576 363.569331 101.958352 365.576133 C 103.968741 367.582934 105.755755 369.756969 107.319391 372.098238 C 108.883028 374.458088 110.223288 376.948008 111.302942 379.549417 C 112.382596 382.169408 113.201643 384.863725 113.760085 387.632368 C 114.299912 390.40101 114.579133 393.206816 114.579133 396.031203 Z M 114.579133 396.031203 " stroke="#808080" stroke-width="7.031" stroke-opacity="0.2" stroke-miterlimit="10"/></g><path fill="#808080" d="M 246.640625 182.160156 C 246.640625 182.160156 277.453125 193.683594 284.046875 167.09375 C 284.046875 167.09375 280.992188 199.597656 246.640625 182.160156 Z M 246.640625 182.160156 " fill-opacity="0.2" fill-rule="nonzero"/><g clip-path="url(#445678ea3a)"><path fill="#808080" d="M 239.105469 210.71875 L 239.691406 210.71875 L 243.15625 209.363281 L 252.042969 211.550781 L 244.84375 218.34375 C 244.84375 218.34375 240.402344 220.984375 239.105469 220.15625 Z M 239.105469 210.71875 " fill-opacity="0.2" fill-rule="nonzero"/></g><g clip-path="url(#7065aeaf06)"><path fill="#808080" d="M 247.371094 195.660156 C 247.371094 195.660156 251.761719 197.171875 249.800781 200.492188 C 247.84375 203.8125 243.777344 203.359375 241.890625 206.226562 C 241.890625 206.226562 240.347656 207.964844 238.820312 207.507812 L 238.820312 206.226562 C 238.820312 206.226562 241.289062 205.625 242.71875 203.585938 C 242.71875 203.585938 247.691406 201.847656 248.445312 200.414062 C 249.199219 198.984375 247.371094 195.660156 247.371094 195.660156 Z M 247.371094 195.660156 " fill-opacity="0.2" fill-rule="nonzero"/></g><g clip-path="url(#cb8678fb98)"><path fill="#999999" d="M 238.824219 119.832031 L 238.824219 130.023438 C 238.824219 130.023438 249.425781 140.777344 238.824219 149.097656 L 238.824219 153.003906 C 238.824219 153.003906 250.808594 143.871094 246.863281 135.796875 C 244.433594 130.8125 238.824219 121.359375 238.824219 119.832031 Z M 238.824219 119.832031 " fill-opacity="0.2" fill-rule="nonzero"/></g><g clip-path="url(#4c1fc90edd)"><path fill="#808080" d="M 238.824219 154.644531 L 238.824219 157.984375 C 238.824219 157.984375 245.339844 158.832031 246.863281 151.019531 C 246.863281 151.019531 244.058594 154.699219 238.824219 154.644531 Z M 238.824219 154.644531 " fill-opacity="0.2" fill-rule="nonzero"/></g><path fill="#999999" d="M 243.242188 180.394531 C 243.242188 180.394531 249.988281 154.390625 274.625 153.625 C 274.625 153.625 253.445312 158.167969 243.242188 180.394531 Z M 243.242188 180.394531 " fill-opacity="0.2" fill-rule="nonzero"/><path fill="#333333" d="M 272.476562 173.785156 C 272.476562 174.210938 272.425781 174.628906 272.324219 175.046875 C 272.222656 175.460938 272.074219 175.867188 271.875 176.257812 C 271.675781 176.652344 271.429688 177.023438 271.140625 177.375 C 270.851562 177.730469 270.519531 178.054688 270.152344 178.355469 C 269.78125 178.65625 269.382812 178.921875 268.949219 179.160156 C 268.515625 179.394531 268.054688 179.59375 267.574219 179.757812 C 267.09375 179.917969 266.59375 180.042969 266.082031 180.125 C 265.570312 180.207031 265.054688 180.246094 264.535156 180.246094 C 264.011719 180.246094 263.496094 180.207031 262.984375 180.125 C 262.472656 180.042969 261.976562 179.917969 261.492188 179.757812 C 261.011719 179.59375 260.554688 179.394531 260.121094 179.160156 C 259.6875 178.921875 259.285156 178.65625 258.914062 178.355469 C 258.546875 178.054688 258.21875 177.730469 257.925781 177.375 C 257.636719 177.023438 257.394531 176.652344 257.195312 176.257812 C 256.992188 175.867188 256.84375 175.460938 256.742188 175.046875 C 256.640625 174.628906 256.589844 174.210938 256.589844 173.785156 C 256.589844 173.363281 256.640625 172.941406 256.742188 172.523438 C 256.84375 172.109375 256.992188 171.703125 257.195312 171.3125 C 257.394531 170.921875 257.636719 170.546875 257.925781 170.195312 C 258.21875 169.84375 258.546875 169.515625 258.914062 169.214844 C 259.285156 168.917969 259.6875 168.648438 260.121094 168.414062 C 260.554688 168.175781 261.011719 167.976562 261.492188 167.816406 C 261.976562 167.652344 262.472656 167.53125 262.984375 167.449219 C 263.496094 167.363281 264.011719 167.324219 264.535156 167.324219 C 265.054688 167.324219 265.570312 167.363281 266.082031 167.449219 C 266.59375 167.53125 267.09375 167.652344 267.574219 167.816406 C 268.054688 167.976562 268.515625 168.175781 268.949219 168.414062 C 269.382812 168.648438 269.78125 168.917969 270.152344 169.214844 C 270.519531 169.515625 270.851562 169.84375 271.140625 170.195312 C 271.429688 170.546875 271.675781 170.921875 271.875 171.3125 C 272.074219 171.703125 272.222656 172.109375 272.324219 172.523438 C 272.425781 172.941406 272.476562 173.363281 272.476562 173.785156 Z M 272.476562 173.785156 " fill-opacity="1" fill-rule="nonzero"/><path fill="#000000" d="M 269.023438 174.125 C 269.023438 174.410156 268.996094 174.695312 268.9375 174.980469 C 268.882812 175.261719 268.800781 175.535156 268.691406 175.800781 C 268.578125 176.066406 268.445312 176.316406 268.285156 176.558594 C 268.125 176.796875 267.945312 177.015625 267.742188 177.21875 C 267.539062 177.425781 267.316406 177.605469 267.078125 177.765625 C 266.839844 177.925781 266.589844 178.058594 266.324219 178.167969 C 266.058594 178.28125 265.785156 178.363281 265.503906 178.417969 C 265.222656 178.476562 264.9375 178.503906 264.652344 178.503906 C 264.363281 178.503906 264.078125 178.476562 263.796875 178.417969 C 263.515625 178.363281 263.242188 178.28125 262.976562 178.167969 C 262.714844 178.058594 262.460938 177.925781 262.222656 177.765625 C 261.984375 177.605469 261.761719 177.425781 261.558594 177.21875 C 261.355469 177.015625 261.175781 176.796875 261.015625 176.558594 C 260.855469 176.316406 260.722656 176.066406 260.613281 175.800781 C 260.503906 175.535156 260.421875 175.261719 260.363281 174.980469 C 260.308594 174.695312 260.28125 174.410156 260.28125 174.125 C 260.28125 173.835938 260.308594 173.550781 260.363281 173.269531 C 260.421875 172.988281 260.503906 172.714844 260.613281 172.449219 C 260.722656 172.183594 260.855469 171.929688 261.015625 171.691406 C 261.175781 171.453125 261.355469 171.230469 261.558594 171.027344 C 261.761719 170.824219 261.984375 170.644531 262.222656 170.484375 C 262.460938 170.324219 262.714844 170.1875 262.976562 170.078125 C 263.242188 169.96875 263.515625 169.886719 263.796875 169.828125 C 264.078125 169.773438 264.363281 169.746094 264.652344 169.746094 C 264.9375 169.746094 265.222656 169.773438 265.503906 169.828125 C 265.785156 169.886719 266.058594 169.96875 266.324219 170.078125 C 266.589844 170.1875 266.839844 170.324219 267.078125 170.484375 C 267.316406 170.644531 267.539062 170.824219 267.742188 171.027344 C 267.945312 171.230469 268.125 171.453125 268.285156 171.691406 C 268.445312 171.929688 268.578125 172.183594 268.691406 172.449219 C 268.800781 172.714844 268.882812 172.988281 268.9375 173.269531 C 268.996094 173.550781 269.023438 173.835938 269.023438 174.125 Z M 269.023438 174.125 " fill-opacity="1" fill-rule="nonzero"/><g clip-path="url(#db260a2781)"><path fill="#000000" d="M 243.742188 178.875 C 243.742188 178.875 241.832031 137.816406 301.664062 143.289062 C 301.660156 143.289062 262.320312 137.542969 243.742188 178.875 Z M 243.742188 178.875 " fill-opacity="1" fill-rule="nonzero"/></g><g clip-path="url(#31b9e9563b)"><path stroke-linecap="butt" transform="matrix(0.209847, 0, 0, 0.210223, 238.82306, 117.092952)" fill="none" stroke-linejoin="miter" d="M 23.441456 293.888725 C 23.441456 293.888725 14.338857 98.57863 299.460547 124.611304 C 299.441932 124.611304 111.973072 97.277925 23.441456 293.888725 Z M 23.441456 293.888725 " stroke="#000000" stroke-width="0.351" stroke-opacity="1" stroke-miterlimit="10"/></g><path stroke-linecap="butt" transform="matrix(0.209847, 0, 0, 0.210223, 238.82306, 117.092952)" fill-opacity="1" fill="#000000" fill-rule="nonzero" stroke-linejoin="miter" d="M 40.976524 303.64401 C 41.218515 303.458195 41.144056 301.65579 41.162671 301.358486 C 41.423277 299.221614 41.795572 297.103323 42.26094 295.022196 C 43.861806 287.775413 46.505096 280.770189 49.94882 274.210922 C 54.95618 264.75294 61.713324 256.261197 69.736269 249.181648 C 80.625881 239.575015 93.637571 232.625535 107.319391 227.868673 C 120.666147 223.223299 134.627188 220.640471 148.662688 219.284022 C 155.550135 218.63367 162.456196 218.410692 169.362258 218.001899 C 175.896025 217.611687 182.560096 218.485018 189.186937 217.983317 C 200.541917 217.128569 211.747979 214.527159 222.302526 210.290578 C 238.944087 203.60124 253.910323 192.842554 265.525909 179.185156 C 264.930238 179.872671 264.893009 182.306847 264.651018 183.235921 C 264.241494 184.815349 263.776126 186.376194 263.236299 187.899877 C 262.193874 190.854334 260.890844 193.715885 259.364437 196.447365 C 256.963138 200.776853 253.928938 204.734711 250.615518 208.395266 C 245.943222 213.598084 240.526338 218.094806 234.718545 221.941176 C 217.220707 233.517447 196.390834 239.296292 175.821567 242.25075 C 173.643644 242.566635 171.447107 242.845358 169.231955 243.105499 C 78.112893 253.511136 56.017219 291.008593 40.976524 303.64401 Z M 40.976524 303.64401 " stroke="#000000" stroke-width="0.351" stroke-opacity="1" stroke-miterlimit="10"/><path stroke-linecap="butt" transform="matrix(0.209847, 0, 0, 0.210223, 238.82306, 117.092952)" fill-opacity="1" fill="#000000" fill-rule="nonzero" stroke-linejoin="miter" d="M 37.25358 306.022441 C 37.25358 306.022441 184.086503 360.837852 215.508153 234.335033 C 215.508153 234.353615 200.951441 388.951654 37.25358 306.022441 Z M 37.25358 306.022441 " stroke="#000000" stroke-width="0.351" stroke-opacity="1" stroke-miterlimit="10"/><path stroke-linecap="butt" transform="matrix(0.209847, 0, 0, 0.210223, 238.82306, 117.092952)" fill-opacity="1" fill="#000000" fill-rule="nonzero" stroke-linejoin="miter" d="M 37.25358 306.022441 C 37.25358 306.022441 184.086503 360.837852 215.508153 234.335033 C 215.508153 234.353615 200.951441 388.951654 37.25358 306.022441 Z M 37.25358 306.022441 " stroke="#000000" stroke-width="0.351" stroke-opacity="1" stroke-miterlimit="10"/><g clip-path="url(#f2ed242ca9)"><path fill="#000000" d="M 247.371094 195.265625 C 247.371094 195.265625 251.761719 196.777344 249.800781 200.097656 C 247.84375 203.417969 243.777344 202.964844 241.890625 205.832031 C 241.890625 205.832031 240.347656 207.570312 238.820312 207.113281 L 238.820312 205.832031 C 238.820312 205.832031 241.289062 205.230469 242.71875 203.191406 C 242.71875 203.191406 247.691406 201.453125 248.445312 200.019531 C 249.199219 198.585938 247.371094 195.265625 247.371094 195.265625 Z M 247.371094 195.265625 " fill-opacity="1" fill-rule="nonzero"/></g><g clip-path="url(#5f8587672d)"><path stroke-linecap="butt" transform="matrix(0.209847, 0, 0, 0.210223, 238.82306, 117.092952)" fill="none" stroke-linejoin="miter" d="M 40.734532 371.856678 C 40.734532 371.856678 61.657479 379.047717 52.312889 394.841988 C 42.986914 410.636259 23.608989 408.480805 14.618078 422.119623 C 14.618078 422.119623 7.265263 430.388388 -0.0130929 428.214353 L -0.0130929 422.119623 C -0.0130929 422.119623 11.751411 419.258072 18.564399 409.558532 C 18.564399 409.558532 42.26094 401.289766 45.853581 394.470358 C 49.446222 387.650949 40.734532 371.856678 40.734532 371.856678 Z M 40.734532 371.856678 " stroke="#000000" stroke-width="0.351" stroke-opacity="1" stroke-miterlimit="10"/></g><g clip-path="url(#75b92fb66b)"><path fill="#000000" d="M 247.371094 195.265625 C 247.371094 195.265625 251.761719 196.777344 249.800781 200.097656 C 247.84375 203.417969 243.777344 202.964844 241.890625 205.832031 C 241.890625 205.832031 240.347656 207.570312 238.820312 207.113281 L 238.820312 205.832031 C 238.820312 205.832031 241.289062 205.230469 242.71875 203.191406 C 242.71875 203.191406 247.691406 201.453125 248.445312 200.019531 C 249.199219 198.585938 247.371094 195.265625 247.371094 195.265625 Z M 247.371094 195.265625 " fill-opacity="1" fill-rule="nonzero"/></g><g clip-path="url(#48d3fbac8e)"><path stroke-linecap="butt" transform="matrix(0.209847, 0, 0, 0.210223, 238.82306, 117.092952)" fill="none" stroke-linejoin="miter" d="M 40.734532 371.856678 C 40.734532 371.856678 61.657479 379.047717 52.312889 394.841988 C 42.986914 410.636259 23.608989 408.480805 14.618078 422.119623 C 14.618078 422.119623 7.265263 430.388388 -0.0130929 428.214353 L -0.0130929 422.119623 C -0.0130929 422.119623 11.751411 419.258072 18.564399 409.558532 C 18.564399 409.558532 42.26094 401.289766 45.853581 394.470358 C 49.446222 387.650949 40.734532 371.856678 40.734532 371.856678 Z M 40.734532 371.856678 " stroke="#000000" stroke-width="0.351" stroke-opacity="1" stroke-miterlimit="10"/></g><g clip-path="url(#786fbb6716)"><path fill="#e91d25" d="M 238.824219 210.4375 L 239.40625 210.4375 L 242.871094 209.078125 L 251.761719 211.265625 L 244.5625 218.058594 C 244.5625 218.058594 240.121094 220.699219 238.820312 219.871094 L 238.820312 210.4375 Z M 238.824219 210.4375 " fill-opacity="1" fill-rule="nonzero"/><path fill="#ff0000" d="M 238.824219 210.4375 L 239.40625 210.4375 L 242.871094 209.078125 L 251.761719 211.265625 L 245.484375 217.1875 C 244.785156 217.847656 243.996094 218.398438 243.140625 218.824219 C 241.726562 219.53125 239.640625 220.394531 238.820312 219.871094 L 238.820312 210.4375 Z M 238.824219 210.4375 " fill-opacity="1" fill-rule="nonzero"/></g><g clip-path="url(#75667d19e7)"><path stroke-linecap="butt" transform="matrix(0.209847, 0, 0, 0.210223, 238.82306, 117.092952)" fill="none" stroke-linejoin="miter" d="M 115.454025 393.392631 C 115.454025 396.2356 115.174804 399.022824 114.634977 401.810048 C 114.076535 404.578691 113.257487 407.273008 112.177834 409.892999 C 111.09818 412.494408 109.776535 414.984328 108.194283 417.325597 C 106.630647 419.685447 104.843633 421.859482 102.833243 423.866283 C 100.841468 425.854503 98.663546 427.656908 96.318091 429.217754 C 93.954021 430.797181 91.478263 432.116467 88.872202 433.194194 C 86.247527 434.290502 83.567007 435.108088 80.793413 435.646951 C 78.001205 436.204396 75.208997 436.483118 72.379559 436.483118 C 69.550121 436.483118 66.757913 436.204396 63.98432 435.646951 C 61.192111 435.108088 58.511592 434.290502 55.886916 433.194194 C 53.280855 432.116467 50.805097 430.797181 48.441027 429.217754 C 46.095572 427.656908 43.91765 425.854503 41.925875 423.866283 C 39.915485 421.859482 38.128471 419.685447 36.564835 417.325597 C 34.982584 414.984328 33.660938 412.494408 32.581284 409.892999 C 31.501631 407.273008 30.682583 404.578691 30.124141 401.810048 C 29.584314 399.022824 29.305093 396.2356 29.305093 393.392631 C 29.305093 390.568244 29.584314 387.762438 30.124141 384.993795 C 30.682583 382.225153 31.501631 379.530836 32.581284 376.910845 C 33.660938 374.309436 34.982584 371.819515 36.564835 369.459665 C 38.128471 367.118397 39.915485 364.944362 41.925875 362.937561 C 43.91765 360.930759 46.095572 359.146936 48.441027 357.58609 C 50.805097 356.006663 53.280855 354.687377 55.886916 353.591069 C 58.511592 352.513342 61.192111 351.695756 63.98432 351.156893 C 66.757913 350.599448 69.550121 350.320725 72.379559 350.320725 C 75.208997 350.320725 78.001205 350.599448 80.793413 351.156893 C 83.567007 351.695756 86.247527 352.513342 88.872202 353.591069 C 91.478263 354.687377 93.954021 356.006663 96.318091 357.58609 C 98.663546 359.146936 100.841468 360.930759 102.833243 362.937561 C 104.843633 364.944362 106.630647 367.118397 108.194283 369.459665 C 109.776535 371.819515 111.09818 374.309436 112.177834 376.910845 C 113.257487 379.530836 114.076535 382.225153 114.634977 384.993795 C 115.174804 387.762438 115.454025 390.568244 115.454025 393.392631 Z M 115.454025 393.392631 " stroke="#e91d25" stroke-width="7.031" stroke-opacity="1" stroke-miterlimit="10"/><path stroke-linecap="butt" transform="matrix(0.209847, 0, 0, 0.210223, 238.82306, 117.092952)" fill="none" stroke-linejoin="miter" d="M 115.454025 393.392631 C 115.454025 396.2356 115.174804 399.022824 114.634977 401.810048 C 114.076535 404.578691 113.257487 407.273008 112.177834 409.892999 C 111.09818 412.494408 109.776535 414.984328 108.194283 417.325597 C 106.630647 419.685447 104.843633 421.859482 102.833243 423.866283 C 100.841468 425.854503 98.663546 427.656908 96.318091 429.217754 C 93.954021 430.797181 91.478263 432.116467 88.872202 433.194194 C 86.247527 434.290502 83.567007 435.108088 80.793413 435.646951 C 78.001205 436.204396 75.208997 436.483118 72.379559 436.483118 C 69.550121 436.483118 66.757913 436.204396 63.98432 435.646951 C 61.192111 435.108088 58.511592 434.290502 55.886916 433.194194 C 53.280855 432.116467 50.805097 430.797181 48.441027 429.217754 C 46.095572 427.656908 43.91765 425.854503 41.925875 423.866283 C 39.915485 421.859482 38.128471 419.685447 36.564835 417.325597 C 34.982584 414.984328 33.660938 412.494408 32.581284 409.892999 C 31.501631 407.273008 30.682583 404.578691 30.124141 401.810048 C 29.584314 399.022824 29.305093 396.2356 29.305093 393.392631 C 29.305093 390.568244 29.584314 387.762438 30.124141 384.993795 C 30.682583 382.225153 31.501631 379.530836 32.581284 376.910845 C 33.660938 374.309436 34.982584 371.819515 36.564835 369.459665 C 38.128471 367.118397 39.915485 364.944362 41.925875 362.937561 C 43.91765 360.930759 46.095572 359.146936 48.441027 357.58609 C 50.805097 356.006663 53.280855 354.687377 55.886916 353.591069 C 58.511592 352.513342 61.192111 351.695756 63.98432 351.156893 C 66.757913 350.599448 69.550121 350.320725 72.379559 350.320725 C 75.208997 350.320725 78.001205 350.599448 80.793413 351.156893 C 83.567007 351.695756 86.247527 352.513342 88.872202 353.591069 C 91.478263 354.687377 93.954021 356.006663 96.318091 357.58609 C 98.663546 359.146936 100.841468 360.930759 102.833243 362.937561 C 104.843633 364.944362 106.630647 367.118397 108.194283 369.459665 C 109.776535 371.819515 111.09818 374.309436 112.177834 376.910845 C 113.257487 379.530836 114.076535 382.225153 114.634977 384.993795 C 115.174804 387.762438 115.454025 390.568244 115.454025 393.392631 Z M 115.454025 393.392631 " stroke="#ff0000" stroke-width="7.031" stroke-opacity="1" stroke-miterlimit="10"/></g><path fill="#e91d25" d="M 259.296875 209.078125 C 259.296875 209.347656 259.199219 209.582031 259.007812 209.773438 C 258.816406 209.964844 258.585938 210.058594 258.316406 210.058594 C 258.046875 210.058594 257.8125 209.964844 257.621094 209.773438 C 257.429688 209.582031 257.335938 209.347656 257.335938 209.078125 C 257.335938 208.808594 257.429688 208.574219 257.621094 208.382812 C 257.8125 208.191406 258.046875 208.097656 258.316406 208.097656 C 258.585938 208.097656 258.816406 208.191406 259.007812 208.382812 C 259.199219 208.574219 259.296875 208.808594 259.296875 209.078125 Z M 259.296875 209.078125 " fill-opacity="1" fill-rule="nonzero"/><path fill="#ffffff" d="M 268.578125 172.992188 C 268.578125 173.355469 268.511719 173.703125 268.371094 174.035156 C 268.234375 174.371094 268.039062 174.664062 267.78125 174.921875 C 267.527344 175.175781 267.234375 175.375 266.898438 175.511719 C 266.566406 175.652344 266.21875 175.71875 265.859375 175.71875 C 265.496094 175.71875 265.148438 175.652344 264.816406 175.511719 C 264.484375 175.375 264.1875 175.175781 263.933594 174.921875 C 263.679688 174.664062 263.480469 174.371094 263.34375 174.035156 C 263.203125 173.703125 263.136719 173.355469 263.136719 172.992188 C 263.136719 172.632812 263.203125 172.285156 263.34375 171.949219 C 263.480469 171.617188 263.679688 171.320312 263.933594 171.066406 C 264.1875 170.808594 264.484375 170.613281 264.816406 170.472656 C 265.148438 170.335938 265.496094 170.265625 265.859375 170.265625 C 266.21875 170.265625 266.566406 170.335938 266.898438 170.472656 C 267.234375 170.613281 267.527344 170.808594 267.78125 171.066406 C 268.039062 171.320312 268.234375 171.617188 268.371094 171.949219 C 268.511719 172.285156 268.578125 172.632812 268.578125 172.992188 Z M 268.578125 172.992188 " fill-opacity="1" fill-rule="nonzero"/><path stroke-linecap="butt" transform="matrix(0.209847, 0, 0, 0.210223, 238.82306, 117.092952)" fill-opacity="1" fill="#000000" fill-rule="nonzero" stroke-linejoin="miter" d="M 23.050547 296.267156 C 23.050547 296.267156 55.198171 175.561764 172.60122 171.919791 C 172.60122 171.919791 71.6722 190.538449 23.050547 296.267156 Z M 23.050547 296.267156 " stroke="#000000" stroke-width="0.351" stroke-opacity="1" stroke-miterlimit="10"/><path fill="#ffffff" d="M 263.792969 177.453125 C 263.792969 177.636719 263.730469 177.792969 263.601562 177.921875 C 263.472656 178.050781 263.316406 178.113281 263.136719 178.113281 C 262.953125 178.113281 262.796875 178.050781 262.671875 177.921875 C 262.542969 177.792969 262.476562 177.636719 262.476562 177.453125 C 262.476562 177.273438 262.542969 177.117188 262.671875 176.988281 C 262.796875 176.859375 262.953125 176.792969 263.136719 176.792969 C 263.316406 176.792969 263.472656 176.859375 263.601562 176.988281 C 263.730469 177.117188 263.792969 177.273438 263.792969 177.453125 Z M 263.792969 177.453125 " fill-opacity="1" fill-rule="nonzero"/><g clip-path="url(#4733272d2a)"><path fill="#ff0000" d="M 238.824219 158.277344 C 240.230469 158.277344 241.371094 159.421875 241.371094 160.828125 C 241.371094 162.242188 240.230469 163.382812 238.824219 163.382812 " fill-opacity="1" fill-rule="nonzero"/></g><g clip-path="url(#136203b927)"><path fill="#ff0000" d="M 238.824219 138.238281 C 240.230469 138.238281 241.371094 139.382812 241.371094 140.792969 C 241.371094 142.199219 240.230469 143.34375 238.824219 143.34375 " fill-opacity="1" fill-rule="nonzero"/></g><g clip-path="url(#ed98c0cc25)"><path fill="#ff0000" d="M 238.824219 154.132812 L 238.824219 157.472656 C 238.824219 157.472656 245.339844 158.324219 246.863281 150.511719 C 246.863281 150.511719 244.058594 154.191406 238.824219 154.132812 Z M 238.824219 154.132812 " fill-opacity="1" fill-rule="nonzero"/></g><g clip-path="url(#9a58c25554)"><path fill="#ff0000" d="M 238.824219 118.984375 L 238.824219 129.171875 C 238.824219 129.171875 249.425781 139.925781 238.824219 148.246094 L 238.824219 152.152344 C 238.824219 152.152344 250.808594 143.023438 246.863281 134.945312 C 244.433594 129.964844 238.824219 120.511719 238.824219 118.984375 Z M 238.824219 118.984375 " fill-opacity="1" fill-rule="nonzero"/><path fill="#ff0000" d="M 238.824219 118.984375 L 238.824219 129.171875 C 238.824219 129.171875 249.425781 139.925781 238.824219 148.246094 L 238.824219 152.152344 C 238.824219 152.152344 250.808594 143.023438 246.863281 134.945312 C 244.433594 129.964844 238.824219 120.511719 238.824219 118.984375 Z M 238.824219 118.984375 " fill-opacity="1" fill-rule="nonzero"/></g><g transform="matrix(1, 0, 0, 1, 8, 81)"><g clip-path="url(#ab617dc7c8)"><g fill="#ff3131" fill-opacity="1"><g transform="translate(2.799988, 118.920634)"><g><path d="M 102.234375 -43.65625 C 102.304688 -43.726562 102.378906 -43.742188 102.453125 -43.703125 C 102.523438 -43.671875 102.5625 -43.625 102.5625 -43.5625 C 102.632812 -43.488281 102.597656 -43.378906 102.453125 -43.234375 C 96.328125 -40.710938 90.113281 -38.316406 83.8125 -36.046875 C 77.507812 -33.773438 71.1875 -31.628906 64.84375 -29.609375 L 71.875 7.453125 C 72.019531 8.535156 71.550781 9.222656 70.46875 9.515625 C 70.25 9.515625 70.03125 9.492188 69.8125 9.453125 C 69.601562 9.421875 69.390625 9.367188 69.171875 9.296875 C 65.273438 6.773438 61.378906 4.285156 57.484375 1.828125 C 53.597656 -0.617188 49.675781 -3.03125 45.71875 -5.40625 C 42.1875 -7.707031 38.257812 -10.097656 33.9375 -12.578125 C 29.613281 -15.066406 25.503906 -17.109375 21.609375 -18.703125 C 20.816406 -19.054688 20.601562 -19.59375 20.96875 -20.3125 C 21.039062 -20.675781 21.363281 -20.929688 21.9375 -21.078125 C 28.351562 -22.160156 34.785156 -23.4375 41.234375 -24.90625 C 47.679688 -26.382812 54.078125 -28.023438 60.421875 -29.828125 L 59.65625 -33.5 C 57.0625 -45.394531 54.578125 -57.285156 52.203125 -69.171875 C 44.566406 -57.421875 36.515625 -45.851562 28.046875 -34.46875 C 19.578125 -23.09375 10.300781 -12.46875 0.21875 -2.59375 C 0.144531 -2.519531 0.0351562 -2.519531 -0.109375 -2.59375 C -0.179688 -2.738281 -0.179688 -2.847656 -0.109375 -2.921875 C 4.648438 -8.753906 9.28125 -14.695312 13.78125 -20.75 C 18.28125 -26.800781 22.617188 -32.925781 26.796875 -39.125 C 31.117188 -45.25 35.316406 -51.476562 39.390625 -57.8125 C 43.460938 -64.15625 47.445312 -70.5 51.34375 -76.84375 C 51.769531 -77.632812 52.453125 -78.03125 53.390625 -78.03125 C 53.609375 -78.03125 53.820312 -77.992188 54.03125 -77.921875 C 54.25 -77.847656 54.46875 -77.738281 54.6875 -77.59375 C 55.257812 -77.238281 55.617188 -76.703125 55.765625 -75.984375 C 57.210938 -69.066406 58.597656 -62.128906 59.921875 -55.171875 C 61.253906 -48.222656 62.570312 -41.253906 63.875 -34.265625 L 64.515625 -31.015625 C 70.929688 -32.890625 77.289062 -34.867188 83.59375 -36.953125 C 89.90625 -39.046875 96.117188 -41.28125 102.234375 -43.65625 Z M 26.265625 -19.34375 C 29.867188 -17.6875 33.414062 -15.882812 36.90625 -13.9375 C 40.40625 -12 43.847656 -10.019531 47.234375 -8 C 50.617188 -5.976562 54.019531 -3.957031 57.4375 -1.9375 C 60.863281 0.0703125 64.234375 2.125 67.546875 4.21875 L 60.734375 -28.3125 C 55.046875 -26.582031 49.335938 -24.960938 43.609375 -23.453125 C 37.878906 -21.941406 32.097656 -20.570312 26.265625 -19.34375 Z M 26.265625 -19.34375 "/></g></g></g></g></g><g clip-path="url(#f2a51823d0)"><path fill="#1ca5f0" d="M 82.070312 157.90625 L 91.703125 157.90625 L 82.070312 132.082031 L 71.757812 132.082031 L 62.355469 157.285156 L 51.746094 185.730469 L 61.378906 185.730469 L 71.988281 157.285156 L 76.914062 144.078125 L 82.070312 157.90625 " fill-opacity="1" fill-rule="nonzero"/></g><g clip-path="url(#bc90a9f280)"><path fill="#ff3131" d="M 113.125 132.082031 L 87.898438 132.082031 L 102.328125 170.769531 L 111.960938 170.769531 L 100.894531 141.101562 L 113.125 141.101562 C 122.953125 141.101562 130.925781 149.074219 130.925781 158.90625 C 130.925781 168.734375 122.953125 176.707031 113.125 176.707031 L 98.714844 176.707031 L 96.09375 169.679688 L 96.089844 169.679688 L 93.917969 163.847656 L 76.261719 163.847656 L 73.242188 172.867188 L 87.652344 172.867188 L 92.449219 185.730469 L 113.566406 185.730469 L 113.5625 185.722656 C 128.175781 185.488281 139.949219 173.574219 139.949219 158.90625 C 139.949219 144.089844 127.9375 132.082031 113.125 132.082031 " fill-opacity="1" fill-rule="nonzero"/></g><g clip-path="url(#1803f0fae2)"><path fill="#1ca5f0" d="M 139.976562 132.0625 L 163.558594 152.632812 L 163.558594 186.789062 L 151.769531 174.246094 L 151.769531 158.785156 L 139.976562 147.992188 Z M 163.808594 152.632812 L 175.597656 158.785156 L 187.386719 147.992188 L 187.386719 132.0625 Z M 163.808594 152.632812 " fill-opacity="1" fill-rule="nonzero"/></g><g clip-path="url(#7648669417)"><path fill="#1ca5f0" d="M 205.460938 134.648438 L 186.355469 167.734375 L 206.398438 167.734375 L 201.453125 159.382812 L 205.460938 152.546875 L 217.90625 173.773438 L 182.867188 173.773438 L 174.328125 188.558594 L 184.351562 188.558594 L 187.644531 182.9375 L 223.277344 182.9375 L 226.574219 188.558594 L 236.59375 188.558594 Z M 205.460938 134.648438 " fill-opacity="1" fill-rule="nonzero"/></g><g transform="matrix(1, 0, 0, 1, 82, 187)"><g clip-path="url(#3f9262f4a9)"><g fill="#000000" fill-opacity="1"><g transform="translate(1.672892, 20.078546)"><g><path d="M 4.53125 -11.234375 L 0.078125 -11.234375 L 0.078125 -14.484375 L 13.0625 -14.484375 L 13.0625 -11.234375 L 8.640625 -11.234375 L 8.640625 0 L 4.53125 0 Z M 4.53125 -11.234375 "/></g></g></g><g fill="#000000" fill-opacity="1"><g transform="translate(14.82039, 20.078546)"><g><path d="M 13.078125 -3.171875 L 13.078125 0 L 1.453125 0 L 1.453125 -14.484375 L 12.8125 -14.484375 L 12.8125 -11.328125 L 5.5 -11.328125 L 5.5 -8.875 L 11.953125 -8.875 L 11.953125 -5.8125 L 5.5 -5.8125 L 5.5 -3.171875 Z M 13.078125 -3.171875 "/></g></g></g><g fill="#000000" fill-opacity="1"><g transform="translate(28.733958, 20.078546)"><g><path d="M 8.671875 0.296875 C 7.148438 0.296875 5.785156 -0.0234375 4.578125 -0.671875 C 3.378906 -1.316406 2.429688 -2.210938 1.734375 -3.359375 C 1.046875 -4.503906 0.703125 -5.800781 0.703125 -7.25 C 0.703125 -8.695312 1.046875 -9.992188 1.734375 -11.140625 C 2.429688 -12.285156 3.378906 -13.175781 4.578125 -13.8125 C 5.785156 -14.457031 7.148438 -14.78125 8.671875 -14.78125 C 9.992188 -14.78125 11.1875 -14.546875 12.25 -14.078125 C 13.3125 -13.609375 14.195312 -12.929688 14.90625 -12.046875 L 12.296875 -9.6875 C 11.359375 -10.820312 10.21875 -11.390625 8.875 -11.390625 C 8.09375 -11.390625 7.394531 -11.210938 6.78125 -10.859375 C 6.164062 -10.515625 5.6875 -10.03125 5.34375 -9.40625 C 5.007812 -8.78125 4.84375 -8.0625 4.84375 -7.25 C 4.84375 -6.4375 5.007812 -5.710938 5.34375 -5.078125 C 5.6875 -4.453125 6.164062 -3.96875 6.78125 -3.625 C 7.394531 -3.28125 8.09375 -3.109375 8.875 -3.109375 C 10.21875 -3.109375 11.359375 -3.671875 12.296875 -4.796875 L 14.90625 -2.4375 C 14.195312 -1.5625 13.3125 -0.882812 12.25 -0.40625 C 11.1875 0.0625 9.992188 0.296875 8.671875 0.296875 Z M 8.671875 0.296875 "/></g></g></g><g fill="#000000" fill-opacity="1"><g transform="translate(44.01404, 20.078546)"><g><path d="M 15.234375 -14.484375 L 15.234375 0 L 11.140625 0 L 11.140625 -5.65625 L 5.546875 -5.65625 L 5.546875 0 L 1.453125 0 L 1.453125 -14.484375 L 5.546875 -14.484375 L 5.546875 -9.046875 L 11.140625 -9.046875 L 11.140625 -14.484375 Z M 15.234375 -14.484375 "/></g></g></g><g fill="#000000" fill-opacity="1"><g transform="translate(60.702049, 20.078546)"><g><path d="M 15.234375 -14.484375 L 15.234375 0 L 11.859375 0 L 5.46875 -7.71875 L 5.46875 0 L 1.453125 0 L 1.453125 -14.484375 L 4.828125 -14.484375 L 11.21875 -6.765625 L 11.21875 -14.484375 Z M 15.234375 -14.484375 "/></g></g></g><g fill="#000000" fill-opacity="1"><g transform="translate(77.390058, 20.078546)"><g><path d="M 8.75 0.296875 C 7.21875 0.296875 5.84375 -0.0234375 4.625 -0.671875 C 3.40625 -1.328125 2.445312 -2.226562 1.75 -3.375 C 1.050781 -4.519531 0.703125 -5.8125 0.703125 -7.25 C 0.703125 -8.6875 1.050781 -9.972656 1.75 -11.109375 C 2.445312 -12.253906 3.40625 -13.148438 4.625 -13.796875 C 5.84375 -14.453125 7.21875 -14.78125 8.75 -14.78125 C 10.289062 -14.78125 11.671875 -14.453125 12.890625 -13.796875 C 14.109375 -13.148438 15.066406 -12.253906 15.765625 -11.109375 C 16.460938 -9.972656 16.8125 -8.6875 16.8125 -7.25 C 16.8125 -5.8125 16.460938 -4.519531 15.765625 -3.375 C 15.066406 -2.226562 14.109375 -1.328125 12.890625 -0.671875 C 11.671875 -0.0234375 10.289062 0.296875 8.75 0.296875 Z M 8.75 -3.109375 C 9.488281 -3.109375 10.15625 -3.28125 10.75 -3.625 C 11.34375 -3.96875 11.8125 -4.453125 12.15625 -5.078125 C 12.5 -5.710938 12.671875 -6.4375 12.671875 -7.25 C 12.671875 -8.0625 12.5 -8.78125 12.15625 -9.40625 C 11.8125 -10.03125 11.34375 -10.515625 10.75 -10.859375 C 10.15625 -11.210938 9.488281 -11.390625 8.75 -11.390625 C 8.019531 -11.390625 7.359375 -11.210938 6.765625 -10.859375 C 6.171875 -10.515625 5.703125 -10.03125 5.359375 -9.40625 C 5.015625 -8.78125 4.84375 -8.0625 4.84375 -7.25 C 4.84375 -6.4375 5.015625 -5.710938 5.359375 -5.078125 C 5.703125 -4.453125 6.171875 -3.96875 6.765625 -3.625 C 7.359375 -3.28125 8.019531 -3.109375 8.75 -3.109375 Z M 8.75 -3.109375 "/></g></g></g><g fill="#000000" fill-opacity="1"><g transform="translate(94.906243, 20.078546)"><g><path d="M 16.140625 -14.484375 L 9.9375 0 L 5.90625 0 L -0.296875 -14.484375 L 4.140625 -14.484375 L 8.078125 -5.046875 L 12.09375 -14.484375 Z M 16.140625 -14.484375 "/></g></g></g><g fill="#000000" fill-opacity="1"><g transform="translate(110.76605, 20.078546)"><g><path d="M 11.15625 -2.8125 L 5.03125 -2.8125 L 3.890625 0 L -0.296875 0 L 6.109375 -14.484375 L 10.140625 -14.484375 L 16.5625 0 L 12.296875 0 Z M 9.953125 -5.84375 L 8.09375 -10.46875 L 6.234375 -5.84375 Z M 9.953125 -5.84375 "/></g></g></g><g fill="#000000" fill-opacity="1"><g transform="translate(127.039959, 20.078546)"><g><path d="M 4.53125 -11.234375 L 0.078125 -11.234375 L 0.078125 -14.484375 L 13.0625 -14.484375 L 13.0625 -11.234375 L 8.640625 -11.234375 L 8.640625 0 L 4.53125 0 Z M 4.53125 -11.234375 "/></g></g></g><g fill="#000000" fill-opacity="1"><g transform="translate(140.187457, 20.078546)"><g><path d="M 13.078125 -3.171875 L 13.078125 0 L 1.453125 0 L 1.453125 -14.484375 L 12.8125 -14.484375 L 12.8125 -11.328125 L 5.5 -11.328125 L 5.5 -8.875 L 11.953125 -8.875 L 11.953125 -5.8125 L 5.5 -5.8125 L 5.5 -3.171875 Z M 13.078125 -3.171875 "/></g></g></g></g></g><path fill="#ff3131" d="M 206.617188 69.765625 C 203.898438 70.574219 201.25 71.503906 198.667969 72.539062 C 243.28125 63.710938 288.097656 90.148438 301.304688 134.617188 C 314.507812 179.082031 291.382812 225.695312 249.183594 242.648438 C 251.914062 242.109375 254.636719 241.441406 257.359375 240.636719 C 304.542969 226.625 331.433594 177.011719 317.421875 129.828125 C 303.410156 82.644531 253.800781 55.753906 206.617188 69.765625 " fill-opacity="1" fill-rule="nonzero"/><path fill="#1ca5f0" d="M 317.042969 92.386719 C 314.675781 90.53125 312.246094 88.8125 309.769531 87.21875 C 344.761719 120.363281 349.398438 175.316406 319.066406 214.003906 C 288.730469 252.6875 234.257812 261.292969 193.722656 235.214844 C 195.863281 237.242188 198.109375 239.191406 200.472656 241.046875 C 241.523438 273.234375 300.898438 266.050781 333.089844 225 C 365.277344 183.949219 358.09375 124.574219 317.042969 92.386719 " fill-opacity="1" fill-rule="nonzero"/><g clip-path="url(#09ba9fc910)"><path fill="#1ca5f0" d="M 229.203125 96.699219 C 253.546875 103.242188 273.574219 117.839844 287.191406 136.847656 C 276.453125 113.144531 255.585938 94.253906 228.496094 86.972656 C 193.105469 77.460938 156.976562 90.40625 135.238281 117.089844 C 160.519531 96.253906 195.160156 87.550781 229.203125 96.699219 " fill-opacity="1" fill-rule="nonzero"/></g><g transform="matrix(1, 0, 0, 1, 73, 268)"><g clip-path="url(#5ff28773dd)"><g clip-path="url(#91f5c720bf)"><g fill="#1b1b1b" fill-opacity="1"><g transform="translate(0.638682, 37.996567)"><g><path d="M 21.265625 -34.625 C 21.546875 -34.34375 21.6875 -33.914062 21.6875 -33.34375 C 21.65625 -29.25 21.640625 -25.164062 21.640625 -21.09375 C 21.640625 -17.019531 21.578125 -12.953125 21.453125 -8.890625 C 21.390625 -6.859375 20.828125 -5.1875 19.765625 -3.875 C 18.703125 -2.5625 17.34375 -1.59375 15.6875 -0.96875 C 14.039062 -0.351562 12.304688 -0.0351562 10.484375 -0.015625 C 8.660156 -0.00390625 6.941406 -0.285156 5.328125 -0.859375 C 4.878906 -1.015625 4.25 -1.257812 3.4375 -1.59375 C 2.632812 -1.925781 1.890625 -2.335938 1.203125 -2.828125 C 0.523438 -3.316406 0.140625 -3.847656 0.046875 -4.421875 C 0.015625 -4.773438 0.140625 -5.234375 0.421875 -5.796875 C 0.710938 -6.367188 1.09375 -6.925781 1.5625 -7.46875 C 2.039062 -8.007812 2.523438 -8.425781 3.015625 -8.71875 C 3.503906 -9.019531 3.925781 -9.078125 4.28125 -8.890625 C 4.976562 -8.515625 5.664062 -8.085938 6.34375 -7.609375 C 7.03125 -7.128906 7.753906 -6.753906 8.515625 -6.484375 C 9.273438 -6.222656 10.082031 -6.203125 10.9375 -6.421875 C 11.988281 -6.703125 12.757812 -7.25 13.25 -8.0625 C 13.738281 -8.875 14.046875 -9.769531 14.171875 -10.75 C 14.359375 -12.238281 14.453125 -13.75 14.453125 -15.28125 C 14.453125 -16.820312 14.46875 -18.335938 14.5 -19.828125 C 14.5 -20.554688 14.539062 -21.425781 14.625 -22.4375 C 14.707031 -23.457031 14.695312 -24.457031 14.59375 -25.4375 C 14.5 -26.425781 14.21875 -27.222656 13.75 -27.828125 C 13.425781 -28.171875 13.050781 -28.414062 12.625 -28.5625 C 12.195312 -28.707031 11.757812 -28.78125 11.3125 -28.78125 C 11.25 -28.78125 11.1875 -28.78125 11.125 -28.78125 C 11.0625 -28.78125 11 -28.78125 10.9375 -28.78125 C 9.988281 -28.75 9.035156 -28.75 8.078125 -28.78125 C 7.128906 -28.8125 6.179688 -28.84375 5.234375 -28.875 C 5.015625 -28.875 4.804688 -28.921875 4.609375 -29.015625 C 4.328125 -29.203125 4.171875 -29.617188 4.140625 -30.265625 C 4.109375 -30.921875 4.125 -31.597656 4.1875 -32.296875 C 4.25 -32.992188 4.28125 -33.484375 4.28125 -33.765625 C 4.28125 -33.890625 4.285156 -34.015625 4.296875 -34.140625 C 4.316406 -34.273438 4.359375 -34.40625 4.421875 -34.53125 C 4.609375 -34.84375 4.945312 -35.054688 5.4375 -35.171875 C 5.9375 -35.285156 6.492188 -35.332031 7.109375 -35.3125 C 7.722656 -35.300781 8.304688 -35.257812 8.859375 -35.1875 C 9.421875 -35.125 9.84375 -35.078125 10.125 -35.046875 C 11.71875 -34.921875 13.320312 -34.878906 14.9375 -34.921875 C 16.550781 -34.972656 18.148438 -35 19.734375 -35 C 20.460938 -35 20.972656 -34.875 21.265625 -34.625 Z M 21.265625 -34.625 "/></g></g></g></g><g clip-path="url(#8f9b62a607)"><g fill="#1b1b1b" fill-opacity="1"><g transform="translate(22.418737, 37.996567)"><g><path d="M 1.8125 -29.96875 C 1.113281 -30.40625 0.601562 -31.03125 0.28125 -31.84375 C -0.03125 -32.65625 -0.046875 -33.535156 0.234375 -34.484375 C 0.773438 -36.359375 2.046875 -37.328125 4.046875 -37.390625 L 4.140625 -37.390625 C 5.117188 -37.390625 5.941406 -37.125 6.609375 -36.59375 C 7.273438 -36.070312 7.71875 -35.351562 7.9375 -34.4375 C 8.226562 -33.289062 8.117188 -32.242188 7.609375 -31.296875 C 7.097656 -30.347656 6.242188 -29.726562 5.046875 -29.4375 C 4.441406 -29.3125 3.859375 -29.296875 3.296875 -29.390625 C 2.742188 -29.484375 2.25 -29.675781 1.8125 -29.96875 Z M 1.140625 -25.203125 C 1.585938 -25.492188 2.222656 -25.625 3.046875 -25.59375 C 3.515625 -25.59375 4.035156 -25.609375 4.609375 -25.640625 C 5.179688 -25.671875 5.710938 -25.613281 6.203125 -25.46875 C 6.691406 -25.320312 7.019531 -25 7.1875 -24.5 C 7.46875 -23.707031 7.5625 -22.742188 7.46875 -21.609375 C 7.375 -20.484375 7.328125 -19.507812 7.328125 -18.6875 C 7.359375 -16.757812 7.375 -14.84375 7.375 -12.9375 C 7.375 -11.03125 7.390625 -9.113281 7.421875 -7.1875 C 7.421875 -6.863281 7.457031 -6.328125 7.53125 -5.578125 C 7.613281 -4.835938 7.660156 -4.039062 7.671875 -3.1875 C 7.691406 -2.332031 7.609375 -1.601562 7.421875 -1 C 7.234375 -0.394531 6.851562 -0.078125 6.28125 -0.046875 C 5.550781 -0.015625 4.789062 0.00390625 4 0.015625 C 3.207031 0.0351562 2.445312 0 1.71875 -0.09375 C 1.207031 -0.15625 0.851562 -0.429688 0.65625 -0.921875 C 0.46875 -1.421875 0.363281 -2.015625 0.34375 -2.703125 C 0.332031 -3.398438 0.359375 -4.066406 0.421875 -4.703125 C 0.484375 -5.335938 0.515625 -5.832031 0.515625 -6.1875 C 0.484375 -7.488281 0.457031 -8.796875 0.4375 -10.109375 C 0.425781 -11.421875 0.421875 -12.726562 0.421875 -14.03125 C 0.390625 -15.144531 0.375 -16.253906 0.375 -17.359375 C 0.375 -18.472656 0.359375 -19.566406 0.328125 -20.640625 C 0.328125 -21.554688 0.3125 -22.441406 0.28125 -23.296875 C 0.25 -24.160156 0.535156 -24.796875 1.140625 -25.203125 Z M 1.140625 -25.203125 "/></g></g></g></g><g fill="#1b1b1b" fill-opacity="1"><g transform="translate(30.645288, 37.996567)"><g><path d="M 14.796875 -21.0625 C 14.628906 -20.96875 14.441406 -20.894531 14.234375 -20.84375 C 14.035156 -20.800781 13.84375 -20.75 13.65625 -20.6875 C 13.300781 -20.65625 12.929688 -20.628906 12.546875 -20.609375 C 12.171875 -20.597656 11.8125 -20.546875 11.46875 -20.453125 C 10.707031 -20.234375 10.054688 -19.828125 9.515625 -19.234375 C 8.972656 -18.648438 8.5625 -17.992188 8.28125 -17.265625 C 7.738281 -15.804688 7.394531 -14.21875 7.25 -12.5 C 7.113281 -10.789062 7.066406 -9.0625 7.109375 -7.3125 C 7.160156 -5.570312 7.171875 -3.925781 7.140625 -2.375 L 7.140625 -1.671875 C 7.140625 -1.066406 6.90625 -0.644531 6.4375 -0.40625 C 5.976562 -0.164062 5.425781 -0.0351562 4.78125 -0.015625 C 4.132812 -0.00390625 3.5 -0.03125 2.875 -0.09375 C 2.257812 -0.15625 1.773438 -0.203125 1.421875 -0.234375 C 1.109375 -0.234375 0.875 -0.296875 0.71875 -0.421875 C 0.425781 -0.617188 0.238281 -0.984375 0.15625 -1.515625 C 0.0820312 -2.054688 0.046875 -2.660156 0.046875 -3.328125 C 0.046875 -3.992188 0.0664062 -4.628906 0.109375 -5.234375 C 0.160156 -5.835938 0.1875 -6.28125 0.1875 -6.5625 C 0.25 -7.675781 0.3125 -8.785156 0.375 -9.890625 C 0.4375 -11.003906 0.46875 -12.113281 0.46875 -13.21875 C 0.46875 -15.375 0.46875 -17.535156 0.46875 -19.703125 C 0.46875 -21.878906 0.46875 -24.0625 0.46875 -26.25 C 0.46875 -26.789062 0.59375 -27.128906 0.84375 -27.265625 C 1.101562 -27.410156 1.421875 -27.46875 1.796875 -27.4375 C 2.179688 -27.40625 2.566406 -27.40625 2.953125 -27.4375 C 3.617188 -27.539062 4.269531 -27.59375 4.90625 -27.59375 C 6.195312 -27.59375 7.191406 -27.175781 7.890625 -26.34375 C 8.148438 -26.0625 8.46875 -25.921875 8.84375 -25.921875 C 8.96875 -25.921875 9.078125 -25.9375 9.171875 -25.96875 C 9.585938 -26 10.082031 -26.140625 10.65625 -26.390625 C 11.226562 -26.648438 11.820312 -26.894531 12.4375 -27.125 C 13.050781 -27.363281 13.628906 -27.523438 14.171875 -27.609375 C 14.710938 -27.691406 15.15625 -27.597656 15.5 -27.328125 C 15.851562 -27.054688 16.03125 -26.507812 16.03125 -25.6875 C 16.03125 -25.269531 16.019531 -24.847656 16 -24.421875 C 15.988281 -23.992188 15.96875 -23.570312 15.9375 -23.15625 C 15.90625 -22.9375 15.875 -22.695312 15.84375 -22.4375 C 15.8125 -22.1875 15.710938 -21.96875 15.546875 -21.78125 C 15.359375 -21.4375 15.109375 -21.195312 14.796875 -21.0625 Z M 14.796875 -21.0625 "/></g></g></g><g fill="#1b1b1b" fill-opacity="1"><g transform="translate(46.766162, 37.996567)"><g><path d="M 23.265625 -1.1875 C 23.003906 -0.875 22.601562 -0.703125 22.0625 -0.671875 C 21.5625 -0.671875 21.070312 -0.769531 20.59375 -0.96875 C 20.113281 -1.175781 19.644531 -1.382812 19.1875 -1.59375 C 18.726562 -1.800781 18.226562 -1.90625 17.6875 -1.90625 C 17.34375 -1.90625 16.992188 -1.878906 16.640625 -1.828125 C 16.296875 -1.785156 15.984375 -1.734375 15.703125 -1.671875 L 15.453125 -1.609375 C 14.535156 -1.453125 13.640625 -1.25 12.765625 -1 C 11.898438 -0.75 11.085938 -0.492188 10.328125 -0.234375 C 9.972656 -0.140625 9.613281 -0.0625 9.25 0 C 8.882812 0.0625 8.515625 0.09375 8.140625 0.09375 C 5.816406 0.09375 3.863281 -0.820312 2.28125 -2.65625 C 0.476562 -4.71875 -0.234375 -7.257812 0.140625 -10.28125 C 0.296875 -11.476562 0.710938 -12.550781 1.390625 -13.5 C 2.078125 -14.457031 2.945312 -15.191406 4 -15.703125 C 4.53125 -15.953125 5.097656 -16.128906 5.703125 -16.234375 C 6.304688 -16.347656 6.925781 -16.453125 7.5625 -16.546875 C 7.71875 -16.546875 7.859375 -16.550781 7.984375 -16.5625 C 8.117188 -16.582031 8.25 -16.609375 8.375 -16.640625 L 14.609375 -17.5 C 15.429688 -17.625 15.941406 -17.867188 16.140625 -18.234375 C 16.347656 -18.597656 16.46875 -18.894531 16.5 -19.125 C 16.5625 -19.65625 16.394531 -20.144531 16 -20.59375 C 15.601562 -21.039062 15.140625 -21.34375 14.609375 -21.5 C 13.617188 -21.875 12.601562 -22.0625 11.5625 -22.0625 L 11.421875 -22.0625 C 10.429688 -22.03125 9.492188 -21.890625 8.609375 -21.640625 C 7.722656 -21.390625 6.867188 -21.085938 6.046875 -20.734375 C 5.785156 -20.609375 5.484375 -20.546875 5.140625 -20.546875 C 4.441406 -20.546875 3.75 -20.773438 3.0625 -21.234375 C 2.382812 -21.691406 1.898438 -22.238281 1.609375 -22.875 C 1.484375 -23.132812 1.425781 -23.347656 1.4375 -23.515625 C 1.457031 -23.691406 1.484375 -23.828125 1.515625 -23.921875 C 1.710938 -24.335938 2.085938 -24.710938 2.640625 -25.046875 C 3.191406 -25.378906 3.773438 -25.660156 4.390625 -25.890625 C 5.015625 -26.128906 5.535156 -26.3125 5.953125 -26.4375 C 8.234375 -27.164062 10.53125 -27.53125 12.84375 -27.53125 C 13.0625 -27.53125 13.28125 -27.53125 13.5 -27.53125 C 13.726562 -27.53125 13.953125 -27.515625 14.171875 -27.484375 C 15.285156 -27.421875 16.515625 -27.207031 17.859375 -26.84375 C 19.203125 -26.476562 20.351562 -25.789062 21.3125 -24.78125 C 22.414062 -23.570312 23.082031 -22.367188 23.3125 -21.171875 C 23.5625 -19.804688 23.644531 -18.382812 23.5625 -16.90625 C 23.488281 -15.4375 23.46875 -14.003906 23.5 -12.609375 C 23.5 -11.179688 23.5 -9.742188 23.5 -8.296875 C 23.5 -6.859375 23.515625 -5.441406 23.546875 -4.046875 C 23.546875 -3.566406 23.566406 -3.054688 23.609375 -2.515625 C 23.660156 -1.984375 23.546875 -1.539062 23.265625 -1.1875 Z M 16.359375 -9.375 C 16.609375 -9.875 16.6875 -10.296875 16.59375 -10.640625 C 16.5 -10.992188 16.40625 -11.238281 16.3125 -11.375 C 16.1875 -11.5625 15.988281 -11.738281 15.71875 -11.90625 C 15.445312 -12.082031 15.078125 -12.1875 14.609375 -12.21875 L 14.21875 -12.265625 C 13.9375 -12.296875 13.644531 -12.3125 13.34375 -12.3125 C 13.039062 -12.3125 12.710938 -12.3125 12.359375 -12.3125 C 11.828125 -12.3125 11.179688 -12.253906 10.421875 -12.140625 C 9.660156 -12.035156 8.929688 -11.742188 8.234375 -11.265625 C 7.753906 -10.890625 7.453125 -10.492188 7.328125 -10.078125 C 7.203125 -9.734375 7.1875 -9.289062 7.28125 -8.75 C 7.5 -7.769531 7.925781 -7.007812 8.5625 -6.46875 C 9.195312 -5.925781 9.957031 -5.65625 10.84375 -5.65625 C 11.957031 -5.65625 13.050781 -6.019531 14.125 -6.75 C 15.207031 -7.476562 15.953125 -8.351562 16.359375 -9.375 Z M 16.359375 -9.375 "/></g></g></g><g fill="#1b1b1b" fill-opacity="1"><g transform="translate(70.496018, 37.996567)"><g/></g></g><g fill="#1b1b1b" fill-opacity="1"><g transform="translate(89.612929, 37.996567)"><g><path d="M 18.171875 -0.375 C 17.660156 -0.34375 17.160156 -0.316406 16.671875 -0.296875 C 16.179688 -0.285156 15.695312 -0.265625 15.21875 -0.234375 C 13.25 -0.203125 11.265625 -0.207031 9.265625 -0.25 C 7.273438 -0.300781 5.296875 -0.25 3.328125 -0.09375 C 3.015625 -0.0625 2.585938 -0.0351562 2.046875 -0.015625 C 1.503906 -0.00390625 1.035156 -0.0820312 0.640625 -0.25 C 0.242188 -0.425781 0.046875 -0.769531 0.046875 -1.28125 C 0.109375 -4.519531 0.140625 -7.75 0.140625 -10.96875 C 0.140625 -14.1875 0.15625 -17.410156 0.1875 -20.640625 C 0.1875 -21.972656 0.1875 -23.304688 0.1875 -24.640625 C 0.1875 -25.972656 0.1875 -27.300781 0.1875 -28.625 C 0.1875 -29.289062 0.191406 -29.957031 0.203125 -30.625 C 0.222656 -31.289062 0.234375 -31.957031 0.234375 -32.625 C 0.234375 -33.070312 0.269531 -33.578125 0.34375 -34.140625 C 0.425781 -34.710938 0.722656 -35.082031 1.234375 -35.25 C 1.328125 -35.28125 1.421875 -35.296875 1.515625 -35.296875 C 1.617188 -35.296875 1.71875 -35.296875 1.8125 -35.296875 C 4.757812 -35.265625 7.710938 -35.210938 10.671875 -35.140625 C 13.640625 -35.078125 16.566406 -34.8125 19.453125 -34.34375 C 20.878906 -34.113281 22.113281 -33.578125 23.15625 -32.734375 C 24.207031 -31.898438 24.976562 -30.875 25.46875 -29.65625 C 25.957031 -28.4375 26.078125 -27.113281 25.828125 -25.6875 C 25.609375 -24.414062 25.179688 -23.28125 24.546875 -22.28125 C 23.910156 -21.28125 23.320312 -20.226562 22.78125 -19.125 C 22.75 -19 22.707031 -18.878906 22.65625 -18.765625 C 22.613281 -18.648438 22.59375 -18.53125 22.59375 -18.40625 C 22.625 -18.125 22.804688 -17.832031 23.140625 -17.53125 C 23.472656 -17.226562 23.84375 -16.941406 24.25 -16.671875 C 24.664062 -16.398438 24.96875 -16.171875 25.15625 -15.984375 C 25.789062 -15.347656 26.367188 -14.640625 26.890625 -13.859375 C 27.421875 -13.085938 27.78125 -12.238281 27.96875 -11.3125 C 28.25 -9.957031 28.128906 -8.5 27.609375 -6.9375 C 27.085938 -5.382812 26.332031 -4.101562 25.34375 -3.09375 C 24.425781 -2.101562 23.328125 -1.425781 22.046875 -1.0625 C 20.765625 -0.695312 19.472656 -0.46875 18.171875 -0.375 Z M 7.421875 -24.921875 C 7.421875 -24.890625 7.421875 -24.847656 7.421875 -24.796875 C 7.421875 -24.753906 7.421875 -24.71875 7.421875 -24.6875 C 7.390625 -24.363281 7.359375 -23.960938 7.328125 -23.484375 C 7.296875 -23.015625 7.332031 -22.570312 7.4375 -22.15625 C 7.550781 -21.75 7.785156 -21.453125 8.140625 -21.265625 C 8.328125 -21.171875 8.515625 -21.113281 8.703125 -21.09375 C 8.890625 -21.070312 9.097656 -21.0625 9.328125 -21.0625 C 10.273438 -21.03125 11.234375 -21 12.203125 -20.96875 C 13.171875 -20.9375 14.128906 -21.019531 15.078125 -21.21875 C 15.804688 -21.34375 16.476562 -21.710938 17.09375 -22.328125 C 17.71875 -22.953125 18.09375 -23.628906 18.21875 -24.359375 C 18.40625 -25.273438 18.300781 -26.066406 17.90625 -26.734375 C 17.507812 -27.398438 16.953125 -27.914062 16.234375 -28.28125 C 15.523438 -28.644531 14.757812 -28.859375 13.9375 -28.921875 C 13.457031 -28.984375 12.890625 -29.035156 12.234375 -29.078125 C 11.585938 -29.128906 10.945312 -29.125 10.3125 -29.0625 C 9.6875 -29 9.132812 -28.816406 8.65625 -28.515625 C 8.175781 -28.210938 7.875 -27.726562 7.75 -27.0625 C 7.6875 -26.71875 7.628906 -26.363281 7.578125 -26 C 7.535156 -25.632812 7.484375 -25.273438 7.421875 -24.921875 Z M 7.796875 -7.796875 C 8.210938 -7.066406 8.804688 -6.582031 9.578125 -6.34375 C 10.359375 -6.113281 11.207031 -6.019531 12.125 -6.0625 C 13.039062 -6.113281 13.882812 -6.1875 14.65625 -6.28125 C 15.570312 -6.375 16.503906 -6.640625 17.453125 -7.078125 C 18.398438 -7.523438 19.128906 -8.144531 19.640625 -8.9375 C 20.117188 -9.601562 20.300781 -10.273438 20.1875 -10.953125 C 20.082031 -11.640625 19.796875 -12.273438 19.328125 -12.859375 C 18.867188 -13.453125 18.335938 -13.921875 17.734375 -14.265625 C 17.035156 -14.710938 16.273438 -14.988281 15.453125 -15.09375 C 14.628906 -15.207031 13.820312 -15.28125 13.03125 -15.3125 C 12.113281 -15.375 11.21875 -15.296875 10.34375 -15.078125 C 9.46875 -14.859375 8.742188 -14.460938 8.171875 -13.890625 C 7.609375 -13.316406 7.28125 -12.492188 7.1875 -11.421875 C 7.15625 -10.972656 7.160156 -10.523438 7.203125 -10.078125 C 7.253906 -9.640625 7.328125 -9.195312 7.421875 -8.75 C 7.484375 -8.59375 7.535156 -8.429688 7.578125 -8.265625 C 7.628906 -8.109375 7.703125 -7.953125 7.796875 -7.796875 Z M 7.796875 -7.796875 "/></g></g></g><g fill="#1b1b1b" fill-opacity="1"><g transform="translate(117.813065, 37.996567)"><g><path d="M 0.046875 -13.796875 C 0.015625 -15.566406 0.363281 -17.332031 1.09375 -19.09375 C 1.820312 -20.851562 2.835938 -22.398438 4.140625 -23.734375 C 5.378906 -25.003906 6.789062 -25.972656 8.375 -26.640625 C 9.957031 -27.304688 11.585938 -27.640625 13.265625 -27.640625 C 13.421875 -27.640625 13.585938 -27.640625 13.765625 -27.640625 C 13.941406 -27.640625 14.109375 -27.640625 14.265625 -27.640625 C 14.265625 -27.640625 14.269531 -27.640625 14.28125 -27.640625 C 14.300781 -27.640625 14.3125 -27.640625 14.3125 -27.640625 C 17.070312 -27.640625 19.503906 -27.066406 21.609375 -25.921875 C 23.722656 -24.773438 25.378906 -23.1875 26.578125 -21.15625 C 27.785156 -19.132812 28.390625 -16.789062 28.390625 -14.125 C 28.390625 -9.96875 27.09375 -6.59375 24.5 -4 C 23.226562 -2.726562 21.710938 -1.75 19.953125 -1.0625 C 18.191406 -0.382812 16.28125 -0.046875 14.21875 -0.046875 C 12.25 -0.046875 10.414062 -0.398438 8.71875 -1.109375 C 7.03125 -1.828125 5.539062 -2.8125 4.25 -4.0625 C 2.96875 -5.320312 1.953125 -6.78125 1.203125 -8.4375 C 0.460938 -10.101562 0.078125 -11.890625 0.046875 -13.796875 Z M 14.078125 -21.96875 C 12.960938 -21.96875 11.882812 -21.609375 10.84375 -20.890625 C 9.800781 -20.179688 8.9375 -19.265625 8.25 -18.140625 C 7.570312 -17.015625 7.21875 -15.835938 7.1875 -14.609375 C 7.15625 -13.242188 7.375 -11.925781 7.84375 -10.65625 C 8.320312 -9.382812 9.050781 -8.320312 10.03125 -7.46875 C 11.019531 -6.613281 12.242188 -6.109375 13.703125 -5.953125 C 15.316406 -5.785156 16.675781 -6.035156 17.78125 -6.703125 C 18.894531 -7.367188 19.753906 -8.28125 20.359375 -9.4375 C 20.960938 -10.59375 21.296875 -11.859375 21.359375 -13.234375 C 21.421875 -14.617188 21.210938 -15.945312 20.734375 -17.21875 C 20.265625 -18.488281 19.503906 -19.554688 18.453125 -20.421875 C 17.410156 -21.296875 16.078125 -21.8125 14.453125 -21.96875 C 14.390625 -21.96875 14.328125 -21.96875 14.265625 -21.96875 C 14.203125 -21.96875 14.140625 -21.96875 14.078125 -21.96875 Z M 14.078125 -21.96875 "/></g></g></g><g fill="#1b1b1b" fill-opacity="1"><g transform="translate(146.298542, 37.996567)"><g><path d="M 23.265625 -1.1875 C 23.003906 -0.875 22.601562 -0.703125 22.0625 -0.671875 C 21.5625 -0.671875 21.070312 -0.769531 20.59375 -0.96875 C 20.113281 -1.175781 19.644531 -1.382812 19.1875 -1.59375 C 18.726562 -1.800781 18.226562 -1.90625 17.6875 -1.90625 C 17.34375 -1.90625 16.992188 -1.878906 16.640625 -1.828125 C 16.296875 -1.785156 15.984375 -1.734375 15.703125 -1.671875 L 15.453125 -1.609375 C 14.535156 -1.453125 13.640625 -1.25 12.765625 -1 C 11.898438 -0.75 11.085938 -0.492188 10.328125 -0.234375 C 9.972656 -0.140625 9.613281 -0.0625 9.25 0 C 8.882812 0.0625 8.515625 0.09375 8.140625 0.09375 C 5.816406 0.09375 3.863281 -0.820312 2.28125 -2.65625 C 0.476562 -4.71875 -0.234375 -7.257812 0.140625 -10.28125 C 0.296875 -11.476562 0.710938 -12.550781 1.390625 -13.5 C 2.078125 -14.457031 2.945312 -15.191406 4 -15.703125 C 4.53125 -15.953125 5.097656 -16.128906 5.703125 -16.234375 C 6.304688 -16.347656 6.925781 -16.453125 7.5625 -16.546875 C 7.71875 -16.546875 7.859375 -16.550781 7.984375 -16.5625 C 8.117188 -16.582031 8.25 -16.609375 8.375 -16.640625 L 14.609375 -17.5 C 15.429688 -17.625 15.941406 -17.867188 16.140625 -18.234375 C 16.347656 -18.597656 16.46875 -18.894531 16.5 -19.125 C 16.5625 -19.65625 16.394531 -20.144531 16 -20.59375 C 15.601562 -21.039062 15.140625 -21.34375 14.609375 -21.5 C 13.617188 -21.875 12.601562 -22.0625 11.5625 -22.0625 L 11.421875 -22.0625 C 10.429688 -22.03125 9.492188 -21.890625 8.609375 -21.640625 C 7.722656 -21.390625 6.867188 -21.085938 6.046875 -20.734375 C 5.785156 -20.609375 5.484375 -20.546875 5.140625 -20.546875 C 4.441406 -20.546875 3.75 -20.773438 3.0625 -21.234375 C 2.382812 -21.691406 1.898438 -22.238281 1.609375 -22.875 C 1.484375 -23.132812 1.425781 -23.347656 1.4375 -23.515625 C 1.457031 -23.691406 1.484375 -23.828125 1.515625 -23.921875 C 1.710938 -24.335938 2.085938 -24.710938 2.640625 -25.046875 C 3.191406 -25.378906 3.773438 -25.660156 4.390625 -25.890625 C 5.015625 -26.128906 5.535156 -26.3125 5.953125 -26.4375 C 8.234375 -27.164062 10.53125 -27.53125 12.84375 -27.53125 C 13.0625 -27.53125 13.28125 -27.53125 13.5 -27.53125 C 13.726562 -27.53125 13.953125 -27.515625 14.171875 -27.484375 C 15.285156 -27.421875 16.515625 -27.207031 17.859375 -26.84375 C 19.203125 -26.476562 20.351562 -25.789062 21.3125 -24.78125 C 22.414062 -23.570312 23.082031 -22.367188 23.3125 -21.171875 C 23.5625 -19.804688 23.644531 -18.382812 23.5625 -16.90625 C 23.488281 -15.4375 23.46875 -14.003906 23.5 -12.609375 C 23.5 -11.179688 23.5 -9.742188 23.5 -8.296875 C 23.5 -6.859375 23.515625 -5.441406 23.546875 -4.046875 C 23.546875 -3.566406 23.566406 -3.054688 23.609375 -2.515625 C 23.660156 -1.984375 23.546875 -1.539062 23.265625 -1.1875 Z M 16.359375 -9.375 C 16.609375 -9.875 16.6875 -10.296875 16.59375 -10.640625 C 16.5 -10.992188 16.40625 -11.238281 16.3125 -11.375 C 16.1875 -11.5625 15.988281 -11.738281 15.71875 -11.90625 C 15.445312 -12.082031 15.078125 -12.1875 14.609375 -12.21875 L 14.21875 -12.265625 C 13.9375 -12.296875 13.644531 -12.3125 13.34375 -12.3125 C 13.039062 -12.3125 12.710938 -12.3125 12.359375 -12.3125 C 11.828125 -12.3125 11.179688 -12.253906 10.421875 -12.140625 C 9.660156 -12.035156 8.929688 -11.742188 8.234375 -11.265625 C 7.753906 -10.890625 7.453125 -10.492188 7.328125 -10.078125 C 7.203125 -9.734375 7.1875 -9.289062 7.28125 -8.75 C 7.5 -7.769531 7.925781 -7.007812 8.5625 -6.46875 C 9.195312 -5.925781 9.957031 -5.65625 10.84375 -5.65625 C 11.957031 -5.65625 13.050781 -6.019531 14.125 -6.75 C 15.207031 -7.476562 15.953125 -8.351562 16.359375 -9.375 Z M 16.359375 -9.375 "/></g></g></g><g fill="#1b1b1b" fill-opacity="1"><g transform="translate(170.028398, 37.996567)"><g><path d="M 14.796875 -21.0625 C 14.628906 -20.96875 14.441406 -20.894531 14.234375 -20.84375 C 14.035156 -20.800781 13.84375 -20.75 13.65625 -20.6875 C 13.300781 -20.65625 12.929688 -20.628906 12.546875 -20.609375 C 12.171875 -20.597656 11.8125 -20.546875 11.46875 -20.453125 C 10.707031 -20.234375 10.054688 -19.828125 9.515625 -19.234375 C 8.972656 -18.648438 8.5625 -17.992188 8.28125 -17.265625 C 7.738281 -15.804688 7.394531 -14.21875 7.25 -12.5 C 7.113281 -10.789062 7.066406 -9.0625 7.109375 -7.3125 C 7.160156 -5.570312 7.171875 -3.925781 7.140625 -2.375 L 7.140625 -1.671875 C 7.140625 -1.066406 6.90625 -0.644531 6.4375 -0.40625 C 5.976562 -0.164062 5.425781 -0.0351562 4.78125 -0.015625 C 4.132812 -0.00390625 3.5 -0.03125 2.875 -0.09375 C 2.257812 -0.15625 1.773438 -0.203125 1.421875 -0.234375 C 1.109375 -0.234375 0.875 -0.296875 0.71875 -0.421875 C 0.425781 -0.617188 0.238281 -0.984375 0.15625 -1.515625 C 0.0820312 -2.054688 0.046875 -2.660156 0.046875 -3.328125 C 0.046875 -3.992188 0.0664062 -4.628906 0.109375 -5.234375 C 0.160156 -5.835938 0.1875 -6.28125 0.1875 -6.5625 C 0.25 -7.675781 0.3125 -8.785156 0.375 -9.890625 C 0.4375 -11.003906 0.46875 -12.113281 0.46875 -13.21875 C 0.46875 -15.375 0.46875 -17.535156 0.46875 -19.703125 C 0.46875 -21.878906 0.46875 -24.0625 0.46875 -26.25 C 0.46875 -26.789062 0.59375 -27.128906 0.84375 -27.265625 C 1.101562 -27.410156 1.421875 -27.46875 1.796875 -27.4375 C 2.179688 -27.40625 2.566406 -27.40625 2.953125 -27.4375 C 3.617188 -27.539062 4.269531 -27.59375 4.90625 -27.59375 C 6.195312 -27.59375 7.191406 -27.175781 7.890625 -26.34375 C 8.148438 -26.0625 8.46875 -25.921875 8.84375 -25.921875 C 8.96875 -25.921875 9.078125 -25.9375 9.171875 -25.96875 C 9.585938 -26 10.082031 -26.140625 10.65625 -26.390625 C 11.226562 -26.648438 11.820312 -26.894531 12.4375 -27.125 C 13.050781 -27.363281 13.628906 -27.523438 14.171875 -27.609375 C 14.710938 -27.691406 15.15625 -27.597656 15.5 -27.328125 C 15.851562 -27.054688 16.03125 -26.507812 16.03125 -25.6875 C 16.03125 -25.269531 16.019531 -24.847656 16 -24.421875 C 15.988281 -23.992188 15.96875 -23.570312 15.9375 -23.15625 C 15.90625 -22.9375 15.875 -22.695312 15.84375 -22.4375 C 15.8125 -22.1875 15.710938 -21.96875 15.546875 -21.78125 C 15.359375 -21.4375 15.109375 -21.195312 14.796875 -21.0625 Z M 14.796875 -21.0625 "/></g></g></g><g clip-path="url(#f21602d370)"><g fill="#1b1b1b" fill-opacity="1"><g transform="translate(186.149273, 37.996567)"><g><path d="M 1.953125 -6.5625 C 0.929688 -8.40625 0.316406 -10.273438 0.109375 -12.171875 C -0.0859375 -14.078125 0.046875 -15.910156 0.515625 -17.671875 C 0.992188 -19.429688 1.71875 -21.007812 2.6875 -22.40625 C 3.65625 -23.800781 4.789062 -24.894531 6.09375 -25.6875 C 7.863281 -26.757812 9.84375 -27.296875 12.03125 -27.296875 C 12.476562 -27.296875 13.039062 -27.203125 13.71875 -27.015625 C 14.40625 -26.828125 15.117188 -26.628906 15.859375 -26.421875 C 16.609375 -26.210938 17.320312 -26.09375 18 -26.0625 C 18.6875 -26.03125 19.265625 -26.15625 19.734375 -26.4375 C 20.210938 -26.726562 20.515625 -27.269531 20.640625 -28.0625 C 20.796875 -29.207031 20.828125 -30.441406 20.734375 -31.765625 C 20.640625 -33.097656 20.5625 -34.351562 20.5 -35.53125 C 20.46875 -36.320312 20.625 -36.828125 20.96875 -37.046875 C 21.320312 -37.273438 21.789062 -37.375 22.375 -37.34375 C 22.96875 -37.3125 23.5625 -37.273438 24.15625 -37.234375 C 24.726562 -37.234375 25.269531 -37.273438 25.78125 -37.359375 C 26.289062 -37.441406 26.703125 -37.398438 27.015625 -37.234375 C 27.328125 -37.078125 27.484375 -36.601562 27.484375 -35.8125 C 27.484375 -32.894531 27.484375 -29.976562 27.484375 -27.0625 C 27.484375 -24.144531 27.484375 -21.226562 27.484375 -18.3125 C 27.453125 -15.613281 27.515625 -12.910156 27.671875 -10.203125 C 27.835938 -7.492188 27.789062 -4.789062 27.53125 -2.09375 C 27.46875 -1.394531 27.242188 -0.941406 26.859375 -0.734375 C 26.484375 -0.523438 26.023438 -0.460938 25.484375 -0.546875 C 24.953125 -0.628906 24.398438 -0.765625 23.828125 -0.953125 C 23.253906 -1.140625 22.734375 -1.265625 22.265625 -1.328125 C 21.085938 -1.484375 19.988281 -1.5 18.96875 -1.375 C 17.957031 -1.25 16.898438 -0.960938 15.796875 -0.515625 C 14.015625 0.140625 12.175781 0.25 10.28125 -0.1875 C 8.53125 -0.570312 6.910156 -1.34375 5.421875 -2.5 C 3.929688 -3.65625 2.773438 -5.007812 1.953125 -6.5625 Z M 13.984375 -21.78125 C 12.773438 -21.78125 11.640625 -21.390625 10.578125 -20.609375 C 9.515625 -19.835938 8.648438 -18.832031 7.984375 -17.59375 C 7.316406 -16.363281 6.984375 -15.050781 6.984375 -13.65625 C 6.984375 -12.320312 7.304688 -11.054688 7.953125 -9.859375 C 8.609375 -8.671875 9.46875 -7.703125 10.53125 -6.953125 C 11.59375 -6.210938 12.726562 -5.828125 13.9375 -5.796875 L 14.125 -5.796875 C 15.738281 -5.796875 17.132812 -6.382812 18.3125 -7.5625 C 19.800781 -9.113281 20.546875 -11.160156 20.546875 -13.703125 C 20.546875 -16.046875 19.941406 -17.96875 18.734375 -19.46875 C 17.535156 -20.976562 15.984375 -21.75 14.078125 -21.78125 Z M 13.984375 -21.78125 "/></g></g></g></g></g></g><g clip-path="url(#5449724cd8)"><path fill="#2684ff" d="M 373.023438 53.730469 L 349.90625 53.730469 C 349.90625 56.5 351.003906 59.152344 352.960938 61.109375 C 354.917969 63.066406 357.574219 64.167969 360.339844 64.167969 L 364.601562 64.167969 L 364.601562 68.277344 C 364.605469 74.035156 369.269531 78.703125 375.027344 78.707031 L 375.027344 55.738281 C 375.027344 54.628906 374.128906 53.730469 373.023438 53.730469 Z M 373.023438 53.730469 " fill-opacity="1" fill-rule="nonzero"/></g><g clip-path="url(#11a3953a16)"><g clip-path="url(#bb81c72a82)"><path fill="url(#b61afb2040)" d="M 338.46875 65.25 L 338.46875 90.226562 L 363.589844 90.226562 L 363.589844 65.25 Z M 338.46875 65.25 " fill-rule="nonzero"/></g></g><g clip-path="url(#5e2c3cc48a)"><g clip-path="url(#a5eafb4d31)"><path fill="url(#7c417d8705)" d="M 327.023438 76.761719 L 327.023438 101.730469 L 352.144531 101.730469 L 352.144531 76.761719 Z M 327.023438 76.761719 " fill-rule="nonzero"/></g></g></svg>